<?xml version="1.0" encoding="utf-8"?>
<!-- Generator: Adobe Illustrator 15.0.1, SVG Export Plug-In . SVG Version: 6.00 Build 0)  -->
<!DOCTYPE svg PUBLIC "-//W3C//DTD SVG 1.1//EN" "http://www.w3.org/Graphics/SVG/1.1/DTD/svg11.dtd">
<svg version="1.1" xmlns="http://www.w3.org/2000/svg" width="600px" height="84px" viewBox="0 0 360 50.377">
<g>
	<path fill="#8F8F8F" d="M46.328,34.74v13.207h-1.013v-13.32L46.328,34.74L46.328,34.74z
		 M45.315,2.43h1.013v13.208l-1.013,0.112V2.43L45.315,2.43z M3.87,34.627v13.32H2.857V34.74L3.87,34.627L3.87,34.627z M2.857,2.43
		H3.87v13.32l-1.013-0.112V2.43L2.857,2.43z M9.945,33.93v14.018H6.908v-13.68L9.945,33.93L9.945,33.93z M6.908,2.43h3.037v14.018
		L6.908,16.11V2.43L6.908,2.43z M18.022,33.008v14.939h-5.04V33.592L18.022,33.008L18.022,33.008z M12.982,2.43h5.04v14.94
		l-5.04-0.585V2.43L12.982,2.43z M27.63,32.604v15.344h-6.075V32.604l3.037-0.338L27.63,32.604L27.63,32.604z M21.555,2.43h6.075
		v15.345l-3.038,0.337l-3.037-0.337V2.43L21.555,2.43z M36.225,33.592v14.355h-5.063V33.008L36.225,33.592L36.225,33.592z
		 M31.163,2.43h5.063v14.355l-5.063,0.585V2.43L31.163,2.43z M42.3,34.268v13.68h-3.037V33.93L42.3,34.268L42.3,34.268z
		 M39.263,2.43H42.3v13.68l-3.037,0.337V2.43L39.263,2.43z"/>
	<path fill="#940043" d="M2.362,18.608h2.025v13.185H2.362V18.608L2.362,18.608z
		 M6.413,18.608v13.185h4.027V18.608H6.413L6.413,18.608z M12.465,18.608v13.185h6.075V18.608H12.465L12.465,18.608z M20.565,18.608
		v13.185h8.078V18.608H20.565L20.565,18.608z M30.667,18.608v13.185h6.053V18.608H30.667L30.667,18.608z M38.745,18.608v13.185h4.05
		V18.608H38.745L38.745,18.608z M44.82,18.608v13.185h2.025V18.608H44.82L44.82,18.608z"/>
</g>
<path fill="#8F8F8F" d="M123.525,38.543l0.022,0.045l-0.022,0.021l-0.022,0.023l-0.045,0.021l-0.045,0.023H123.3l-0.202,0.023
	l-0.135,0.045l-0.09,0.066l-0.09,0.09l-0.068,0.113l-0.022,0.135l-0.022,0.18l-0.022,0.225v0.248l-0.022,7.313v0.473l-0.022,0.27
	l-0.022,0.068l-0.022,0.045l-0.022,0.021h-0.022l-0.09-0.021l-0.157-0.135l-0.248-0.248l-0.405-0.404l-0.135-0.113l-0.248-0.248
	l-0.36-0.383l-0.45-0.449l-0.495-0.518l-0.517-0.539l-0.54-0.563l-0.518-0.541l-0.54-0.584l-0.518-0.586l-0.495-0.539l-0.45-0.496
	l-0.428-0.449l-0.337-0.406l-0.27-0.291l-0.203-0.227l0.158,5.963l0.022,0.338l0.022,0.293l0.022,0.246l0.067,0.182l0.068,0.156
	l0.067,0.09l0.09,0.09l0.135,0.045l0.36,0.068h0.248h0.045l0.045,0.023v0.021l0.022,0.045l-0.022,0.045l-0.045,0.023l-0.067,0.021
	h-0.09h-0.495l-0.383-0.021h-0.292l-0.157-0.023l-0.158,0.023h-0.27l-0.36,0.021h-0.405h-0.09l-0.045-0.021l-0.045-0.023
	l-0.022-0.045l0.022-0.045v-0.021l0.045-0.023h0.045h0.225l0.27-0.068l0.112-0.045l0.09-0.09l0.067-0.111l0.045-0.158l0.022-0.203
	l0.022-0.27l0.022-0.314V46.08v-7.133l0.022-0.314l0.022-0.18l0.022-0.068l0.023-0.045l0.022-0.021h0.045l0.09,0.045l0.112,0.111
	l0.113,0.135l0.112,0.113l0.135,0.158l0.292,0.314l0.405,0.428l0.495,0.539l0.585,0.631l0.652,0.697l0.675,0.742l0.72,0.742
	l0.923,1.014l0.877,0.967l0.72,0.787l0.45,0.496l-0.135-6.322v-0.293l-0.022-0.225l-0.022-0.182l-0.045-0.156l-0.067-0.135
	l-0.09-0.09l-0.09-0.068l-0.135-0.045l-0.36-0.045h-0.247l-0.068-0.023l-0.022-0.021l-0.022-0.023v-0.021l0.022-0.045l0.045-0.023
	l0.09-0.021h0.09h0.428l0.382,0.021h0.315h0.18h0.157h0.225l0.315-0.021h0.36h0.09l0.067,0.021L123.525,38.543z M152.348,38.498
	h-0.09h-0.36l-0.292,0.021h-0.248H151.2h-0.18h-0.292l-0.405-0.021h-0.405h-0.112l-0.068,0.021l-0.067,0.023v0.045v0.021v0.023
	l0.045,0.021l0.045,0.023h0.27l0.338,0.045l0.135,0.045l0.113,0.068l0.067,0.09l0.067,0.135l0.045,0.156l0.045,0.182v0.225
	l0.022,0.293l0.135,6.322l-0.473-0.496l-0.72-0.787l-0.877-0.967l-0.923-1.014l-0.72-0.742l-0.675-0.742l-0.652-0.697l-0.585-0.631
	l-0.495-0.539l-0.405-0.428l-0.27-0.314l-0.158-0.158l-0.09-0.113l-0.135-0.135l-0.112-0.111l-0.09-0.045h-0.045l-0.022,0.021
	l-0.022,0.045l-0.022,0.068l-0.022,0.18v0.314l-0.022,7.133v0.383v0.314l-0.022,0.27l-0.045,0.203l-0.045,0.158l-0.068,0.111
	l-0.09,0.09l-0.09,0.045l-0.292,0.068h-0.225h-0.045l-0.022,0.023l-0.022,0.021v0.045v0.045l0.045,0.023l0.067,0.021h0.067h0.428
	l0.337-0.021h0.292l0.158-0.023l0.135,0.023h0.292l0.382,0.021h0.495h0.113l0.067-0.021l0.045-0.023v-0.045v-0.045l-0.022-0.021
	l-0.022-0.023h-0.045h-0.27l-0.36-0.068l-0.112-0.045l-0.09-0.09l-0.09-0.09l-0.067-0.156l-0.045-0.182l-0.045-0.246l-0.022-0.293
	l-0.022-0.338l-0.158-5.963l0.203,0.227l0.27,0.291l0.36,0.406l0.405,0.449l0.45,0.496l0.495,0.539l0.54,0.586l0.54,0.584
	l0.495,0.541l0.54,0.563l0.518,0.539l0.495,0.518l0.45,0.449l0.36,0.383l0.248,0.248l0.135,0.113l0.405,0.404l0.248,0.248
	l0.157,0.135l0.09,0.021h0.045l0.022-0.021l0.022-0.045v-0.068l0.022-0.27v-0.473l0.022-7.313l0.022-0.248V39.33l0.022-0.18
	l0.045-0.135l0.045-0.113l0.09-0.09l0.112-0.066l0.135-0.045l0.18-0.023h0.113l0.067-0.023l0.045-0.021l0.022-0.023v-0.021v-0.045
	l-0.045-0.023L152.348,38.498z M158.58,47.723h-0.248l-0.315-0.045l-0.113-0.023l-0.112-0.045l-0.09-0.066l-0.045-0.09l-0.045-0.09
	l-0.045-0.113l-0.022-0.135v-0.113l-0.045-0.473l-0.022-0.629v-0.766v-0.832v-2.205v-1.17v-0.742v-0.451l0.022-0.314l0.022-0.156
	l0.022-0.137l0.022-0.111l0.045-0.09l0.068-0.09l0.067-0.045l0.09-0.045l0.113-0.045l0.18-0.023h0.135l0.045-0.023h0.022
	l0.022-0.021l0.022-0.045l-0.022-0.045l-0.022-0.023l-0.067-0.021h-0.09h-0.337l-0.382,0.021h-0.337h-0.158h-0.18h-0.337
	l-0.382-0.021h-0.36h-0.09l-0.067,0.021l-0.045,0.023v0.045v0.045l0.022,0.021h0.045l0.022,0.023h0.18l0.203,0.045l0.112,0.023
	l0.067,0.045l0.067,0.066l0.068,0.068l0.045,0.09l0.045,0.111l0.022,0.137v0.156l0.022,0.314v0.451v0.742v1.17v2.205v0.832V45.9
	l-0.022,0.629l-0.022,0.473l-0.045,0.248l-0.067,0.203l-0.045,0.09l-0.067,0.066l-0.067,0.045l-0.067,0.023l-0.203,0.045h-0.18
	l-0.045,0.023h-0.022l-0.022,0.021v0.045v0.045l0.045,0.023l0.045,0.021h0.09h0.337l0.405-0.021h0.315l0.18-0.023l0.158,0.023h0.36
	l0.495,0.021h0.518h0.09l0.045-0.021l0.045-0.045v-0.023v-0.045v-0.021h-0.045L158.58,47.723z M324.518,46.17l-0.045,0.023
	l-0.022,0.021l-0.022,0.045l-0.022,0.068l-0.045,0.201l-0.067,0.182l-0.091,0.201l-0.112,0.158l-0.135,0.135l-0.135,0.09
	l-0.181,0.068l-0.18,0.045l-0.405,0.045h-0.473h-0.337l-0.293-0.023l-0.225-0.021l-0.18-0.023l-0.158-0.045l-0.135-0.045
	l-0.09-0.066l-0.09-0.068l-0.067-0.113l-0.067-0.156l-0.046-0.248l-0.022-0.293l-0.045-0.854l-0.022-1.17v-2.229v-1.17v-0.742
	l0.022-0.451V39.42l0.022-0.156l0.022-0.137l0.022-0.111l0.068-0.09l0.045-0.09l0.09-0.045l0.09-0.045l0.135-0.045l0.226-0.023h0.18
	l0.045-0.023h0.022l0.022-0.021l0.022-0.045l-0.022-0.045l-0.045-0.023l-0.045-0.021h-0.09h-0.36l-0.428,0.021h-0.382h-0.181h-0.157
	h-0.36l-0.449-0.021h-0.428h-0.09l-0.067,0.021l-0.045,0.023v0.045v0.045l0.022,0.021h0.045l0.022,0.023h0.225l0.202,0.023
	l0.136,0.045l0.112,0.045l0.09,0.066l0.067,0.068l0.067,0.111l0.022,0.09l0.022,0.137l0.022,0.156v0.314l0.022,0.451v0.742v1.17
	v2.205v0.832l-0.022,0.766v0.629l-0.045,0.473l-0.045,0.248l-0.067,0.203l-0.045,0.09l-0.045,0.066l-0.067,0.045l-0.09,0.023
	l-0.181,0.045h-0.202l-0.045,0.023h-0.022l-0.022,0.021v0.045l0.022,0.045l0.022,0.023l0.067,0.021h0.09h0.338l0.359-0.021h0.338
	l0.18-0.023l0.585,0.023l0.676,0.021l0.899,0.023l1.17,0.021h0.226l0.18-0.021l0.112-0.023l0.09-0.021l0.068-0.045l0.045-0.068
	l0.045-0.066l0.022-0.092l0.067-0.336l0.067-0.383l0.045-0.338V46.35v-0.066v-0.068l-0.022-0.021L324.518,46.17z M169.987,38.52
	l-0.067-0.021h-0.09h-0.292l-0.292,0.021h-0.248h-0.135h-0.18h-0.292l-0.36-0.021h-0.382h-0.135l-0.068,0.021l-0.045,0.023
	l-0.022,0.045v0.045l0.045,0.021h0.045l0.045,0.023h0.225l0.248,0.045l0.068,0.045l0.067,0.09l0.022,0.068v0.09l-0.022,0.201
	l-0.09,0.271l-0.157,0.473l-0.27,0.742l-0.337,0.922l-0.405,1.014l-0.405,1.057l-0.405,1.035l-0.36,0.922l-0.315,0.721l-2.385-6.367
	l-0.135-0.338l-0.112-0.293l-0.068-0.225l-0.022-0.18v-0.068l0.022-0.066l0.045-0.045l0.09-0.068l0.225-0.045h0.248l0.045-0.023
	h0.045l0.022-0.045v-0.021v-0.045l-0.067-0.023l-0.113-0.021h-0.135h-0.383l-0.337,0.021h-0.27h-0.18h-0.203h-0.36l-0.428-0.021
	h-0.473h-0.135l-0.09,0.021l-0.068,0.023l-0.022,0.045v0.021l0.022,0.023l0.023,0.021l0.045,0.023h0.202l0.27,0.045l0.158,0.045
	l0.135,0.045l0.113,0.09l0.112,0.09l0.09,0.113l0.112,0.135l0.09,0.203l0.09,0.225l3.06,7.627l0.135,0.383l0.112,0.248l0.045,0.066
	l0.045,0.045l0.045,0.023l0.067,0.021l0.045-0.021l0.022-0.023l0.045-0.066l0.068-0.09l0.135-0.293l0.203-0.449l0.112-0.271
	l0.158-0.338l0.157-0.381l0.203-0.451l0.203-0.518l0.248-0.539l0.248-0.631l0.27-0.652l0.247-0.563l0.225-0.563l0.225-0.518
	l0.203-0.494l0.157-0.428l0.158-0.338l0.112-0.293l0.068-0.18l0.225-0.518l0.18-0.338l0.158-0.201l0.135-0.113l0.18-0.09
	l0.157-0.045h0.158h0.09l0.067-0.023h0.045l0.023-0.045l0.022-0.021l-0.022-0.045L169.987,38.52z M357.615,38.543l-0.022-0.023
	l-0.067-0.021h-0.045h-0.293l-0.383,0.021h-0.359h-0.181h-0.135h-0.202l-0.226-0.021h-0.27h-0.067l-0.067,0.021l-0.045,0.023v0.021
	v0.045l0.045,0.023l0.045,0.045l0.09,0.023l0.09,0.045l0.067,0.066l0.022,0.113l0.022,0.111l-0.022,0.135l-0.022,0.158l-0.067,0.158
	l-0.112,0.18l-0.135,0.27l-0.248,0.404l-0.314,0.541l-0.338,0.584l-0.338,0.586l-0.292,0.539l-0.248,0.451l-0.157,0.293
	l-0.135-0.248l-0.271-0.473l-0.359-0.586l-0.383-0.652l-0.383-0.674l-0.337-0.586l-0.271-0.449l-0.135-0.27L351,39.264l-0.067-0.113
	l-0.022-0.113v-0.111v-0.068l0.022-0.066L351,38.746l0.067-0.045l0.135-0.068l0.045-0.045v-0.045l-0.022-0.023l-0.045-0.021h-0.09
	h-0.359l-0.315,0.021h-0.247h-0.136h-0.18h-0.36l-0.404-0.021h-0.271h-0.09l-0.045,0.021l-0.022,0.023l-0.022,0.045l0.022,0.021
	l0.022,0.045h0.045l0.045,0.023h0.112l0.135,0.045l0.136,0.068l0.157,0.066l0.18,0.158l0.203,0.201l0.225,0.248l0.225,0.314
	l0.226,0.338l0.292,0.473l0.36,0.563l0.36,0.586l0.337,0.584l0.315,0.496l0.202,0.359l0.112,0.203l0.113,0.246l0.09,0.271
	l0.022,0.156l0.022,0.18l0.022,0.203v0.248v1.057v0.203v0.314v0.338l-0.022,0.404l-0.022,0.113l-0.022,0.135l-0.022,0.113
	l-0.045,0.09l-0.045,0.09l-0.068,0.066l-0.09,0.045l-0.067,0.023l-0.202,0.045h-0.181l-0.045,0.023h-0.022l-0.022,0.021v0.045v0.045
	l0.045,0.023l0.068,0.021h0.067h0.359l0.383-0.021h0.315l0.18-0.023l0.157,0.023h0.36l0.495,0.021h0.518h0.09l0.045-0.021
	l0.045-0.045l0.022-0.023l-0.022-0.045v-0.021h-0.045l-0.045-0.023h-0.248l-0.314-0.045l-0.112-0.023l-0.113-0.045l-0.09-0.066
	l-0.067-0.09l-0.045-0.09l-0.045-0.113l-0.022-0.135v-0.113l-0.022-0.404l-0.022-0.338v-0.314v-0.203v-1.057v-0.314l0.022-0.293
	l0.022-0.158l0.022-0.156l0.045-0.158l0.067-0.18l0.157-0.293l0.248-0.473l0.337-0.584l0.383-0.631l0.383-0.631l0.359-0.584
	l0.293-0.473l0.225-0.27l0.181-0.225l0.157-0.182l0.157-0.135l0.157-0.111l0.158-0.068l0.157-0.066l0.135-0.023h0.136l0.067-0.023
	l0.045-0.021l0.022-0.023l0.022-0.045L357.615,38.543z M177.03,46.215l-0.045,0.023l-0.022,0.021l-0.022,0.068l-0.022,0.09
	l-0.045,0.18l-0.045,0.158l-0.045,0.135l-0.068,0.111l-0.067,0.09l-0.09,0.092l-0.09,0.066l-0.112,0.045l-0.135,0.045l-0.135,0.045
	l-0.157,0.023l-0.18,0.021h-0.315l-0.27,0.023l-0.405-0.023l-0.337-0.021l-0.135-0.023l-0.113-0.045l-0.09-0.045l-0.09-0.045
	l-0.068-0.066l-0.045-0.068l-0.067-0.068l-0.022-0.111l-0.045-0.225l-0.022-0.293v-0.383v-0.607v-0.652v-0.473v-1.102v-0.047
	l0.022-0.021l0.022-0.023h0.045h0.315l0.518,0.023l0.54,0.021l0.405,0.023l0.158,0.023l0.135,0.045l0.113,0.045l0.067,0.045
	l0.067,0.066l0.045,0.068l0.022,0.066l0.023,0.068l0.045,0.225l0.022,0.18v0.045l0.022,0.045l0.022,0.023h0.045l0.045-0.023
	l0.022-0.045v-0.09v-0.066l0.022-0.135v-0.203l0.023-0.248l0.022-0.225l0.022-0.27l0.022-0.203l0.045-0.135v-0.068v-0.066
	l-0.022-0.023l-0.022-0.021h-0.022l-0.068,0.045l-0.112,0.111l-0.09,0.09l-0.135,0.045l-0.157,0.023l-0.203,0.023l-0.405,0.021
	h-0.63h-0.607h-0.337h-0.045l-0.022-0.021v-0.047v-0.045v-3.441v-0.068l0.022-0.021l0.022-0.023l0.022-0.021l0.292,0.021h0.54h0.54
	l0.337,0.023l0.225,0.021l0.18,0.045l0.135,0.045l0.112,0.045l0.09,0.068l0.067,0.068l0.045,0.066l0.022,0.068l0.067,0.246v0.203
	l0.022,0.068v0.045l0.045,0.021l0.045,0.023l0.022-0.023l0.022-0.021l0.022-0.045l0.022-0.045l0.022-0.182v-0.246l0.022-0.248
	l0.022-0.158l0.045-0.381l0.045-0.203l-0.022-0.068l-0.023-0.045l-0.09,0.045l-0.09,0.023l-0.225,0.045l-0.315,0.021h-0.54h-0.945
	h-0.923h-0.427h-0.18h-0.337l-0.45-0.021h-0.45h-0.09l-0.067,0.021l-0.022,0.023l-0.022,0.045l0.022,0.045l0.022,0.021h0.022
	l0.045,0.023h0.203l0.203,0.023l0.157,0.045l0.113,0.045l0.09,0.066l0.067,0.068l0.045,0.111l0.045,0.09l0.022,0.137v0.156
	l0.022,0.314v0.451v0.742v1.17v2.205v0.832V45.9l-0.022,0.629l-0.022,0.473l-0.045,0.248l-0.068,0.203l-0.045,0.09l-0.067,0.066
	l-0.067,0.045l-0.068,0.023l-0.202,0.045h-0.18l-0.045,0.023h-0.045v0.021v0.045v0.045l0.045,0.023l0.045,0.021h0.09h0.338
	l0.405-0.021h0.315l0.18-0.023l0.36,0.023l0.607,0.021l0.877,0.023l1.215,0.021l0.292-0.021l0.202-0.023l0.068-0.045l0.045-0.045
	l0.022-0.09l0.045-0.113l0.045-0.27l0.068-0.383l0.022-0.359l0.022-0.18V46.35v-0.066l-0.022-0.045L177.03,46.215z M84.623,46.17
	l-0.045,0.023l-0.022,0.021l-0.022,0.045l-0.023,0.068l-0.045,0.201l-0.067,0.182l-0.09,0.201l-0.113,0.158l-0.135,0.135
	l-0.135,0.09l-0.18,0.068l-0.18,0.045l-0.405,0.045h-0.473H82.35l-0.292-0.023l-0.225-0.021l-0.18-0.023l-0.157-0.045l-0.135-0.045
	l-0.09-0.066l-0.09-0.068l-0.068-0.113l-0.067-0.156L81,46.643l-0.022-0.293l-0.045-0.854l-0.022-1.17v-2.229v-1.17v-0.742
	l0.022-0.451V39.42l0.022-0.156l0.022-0.137L81,39.016l0.067-0.09l0.045-0.09l0.09-0.045l0.09-0.045l0.135-0.045l0.225-0.023h0.18
	l0.045-0.023H81.9l0.022-0.021l0.022-0.045l-0.022-0.045l-0.045-0.023l-0.045-0.021h-0.09h-0.36l-0.427,0.021h-0.383h-0.18h-0.158
	h-0.36l-0.45-0.021h-0.427h-0.09L78.84,38.52l-0.045,0.023v0.045v0.045l0.022,0.021h0.045l0.022,0.023h0.225l0.203,0.023
	l0.135,0.045l0.113,0.045l0.09,0.066l0.067,0.068l0.068,0.111l0.022,0.09l0.022,0.137l0.022,0.156v0.314l0.022,0.451v0.742v1.17
	v2.205v0.832L79.853,45.9v0.629l-0.045,0.473l-0.045,0.248l-0.068,0.203l-0.045,0.09l-0.045,0.066l-0.067,0.045l-0.09,0.023
	l-0.18,0.045h-0.203l-0.045,0.023h-0.022l-0.022,0.021v0.045l0.022,0.045l0.022,0.023l0.067,0.021h0.09h0.337l0.36-0.021h0.337
	l0.18-0.023l0.585,0.023l0.675,0.021l0.9,0.023l1.17,0.021h0.225l0.18-0.021l0.113-0.023l0.09-0.021l0.067-0.045l0.045-0.068
	l0.045-0.066l0.022-0.092l0.068-0.336l0.067-0.383l0.045-0.338V46.35v-0.066v-0.068l-0.022-0.021L84.623,46.17z M189.338,47.768
	l0.022,0.045l-0.022,0.045l-0.045,0.023l-0.091,0.021h-0.157h-0.877l-0.45-0.021l-0.36-0.023l-0.135-0.045l-0.135-0.045
	l-0.136-0.045l-0.112-0.068l-0.202-0.111l-0.181-0.158l-0.202-0.18l-0.18-0.203l-0.428-0.518l-0.495-0.652l-0.383-0.518
	l-0.382-0.539l-0.338-0.449l-0.247-0.338l-0.067-0.045l-0.091-0.023l-1.529-0.021h-0.045l-0.022,0.021l-0.022,0.023v0.045v0.314
	v0.832V45.9l0.022,0.629l0.045,0.473l0.022,0.113l0.022,0.135l0.022,0.113l0.045,0.09l0.067,0.09l0.067,0.066l0.112,0.045
	l0.113,0.023l0.314,0.045h0.248l0.045,0.023h0.045v0.021l0.022,0.045l-0.022,0.023l-0.022,0.045l-0.067,0.021h-0.091h-0.518
	l-0.494-0.021h-0.36l-0.157-0.023l-0.136,0.023h-0.314l-0.383,0.021h-0.337h-0.091l-0.067-0.021l-0.022-0.023l-0.022-0.045v-0.045
	l0.022-0.021h0.022l0.045-0.023h0.203l0.18-0.045l0.09-0.023l0.067-0.045l0.045-0.066l0.046-0.09l0.067-0.203l0.045-0.248
	l0.045-0.473V45.9l0.022-0.766v-0.832v-2.205v-1.17v-0.742l-0.022-0.451V39.42l-0.022-0.156l-0.022-0.137l-0.045-0.09l-0.045-0.111
	l-0.068-0.068l-0.09-0.066l-0.112-0.045l-0.135-0.045l-0.203-0.023h-0.225L180,38.654h-0.022l-0.022-0.021v-0.045v-0.045L180,38.52
	l0.067-0.021h0.09h0.428l0.45,0.021h0.359h0.158h0.225h0.428l0.45-0.021h0.359h0.293l0.314,0.021l0.293,0.023l0.292,0.045
	l0.293,0.066l0.27,0.092l0.271,0.135l0.247,0.156l0.136,0.113l0.135,0.135l0.157,0.158l0.135,0.201l0.113,0.227l0.112,0.27
	l0.022,0.135l0.045,0.158v0.135l0.022,0.156l-0.022,0.361l-0.067,0.336l-0.09,0.361l-0.158,0.338l-0.202,0.359l-0.27,0.383
	l-0.315,0.359l-0.383,0.383l0.721,0.945l0.675,0.854l0.63,0.744l0.563,0.652l0.247,0.225l0.226,0.203l0.225,0.156l0.18,0.113
	l0.203,0.066l0.157,0.068l0.157,0.045l0.113,0.023l0.314,0.021h0.18l0.046,0.023h0.022L189.338,47.768z M184.5,43.178l0.157-0.18
	l0.136-0.18l0.112-0.227l0.09-0.27l0.067-0.293l0.045-0.314v-0.338v-0.27l-0.022-0.27l-0.067-0.27l-0.045-0.227l-0.09-0.225
	l-0.09-0.201l-0.136-0.203l-0.112-0.158l-0.157-0.156l-0.157-0.135l-0.181-0.113l-0.202-0.09l-0.203-0.068l-0.202-0.066
	l-0.247-0.023h-0.226h-0.292l-0.226,0.023l-0.202,0.021l-0.135,0.023l-0.022,0.021l-0.045,0.023l-0.022,0.045v0.045v4.072v0.045
	l0.022,0.045l0.022,0.045l0.045,0.023l0.202,0.066l0.315,0.068l0.382,0.045l0.405,0.021l0.225-0.021l0.248-0.023l0.112-0.021
	l0.112-0.045l0.136-0.068l0.09-0.066L184.5,43.178z M77.31,47.768l0.022,0.045l-0.022,0.045l-0.067,0.023l-0.068,0.021h-0.09h-0.27
	h-0.473h-0.585l-0.63-0.021H74.97l-0.135-0.023l-0.067-0.021l-0.022-0.045v-0.023l0.022-0.045h0.022l0.045-0.021l0.045-0.023
	l0.045-0.068l0.022-0.111l-0.045-0.135l-1.147-3.061l-0.022-0.023l-0.022-0.021l-0.022-0.023h-0.045h-2.678H70.92l-0.022,0.023
	l-0.045,0.021l-0.022,0.047l-0.743,2.203l-0.067,0.227l-0.045,0.225l-0.045,0.203v0.18v0.09l0.045,0.066l0.045,0.068l0.067,0.045
	l0.067,0.045l0.068,0.023l0.09,0.021h0.09h0.113h0.067l0.022,0.023l0.022,0.021l0.022,0.045l-0.022,0.045l-0.045,0.023l-0.045,0.021
	h-0.09H70.2l-0.292-0.021H69.66l-0.18-0.023l-0.18,0.023h-0.36l-0.405,0.021h-0.45h-0.112l-0.068-0.021l-0.045-0.023l-0.022-0.045
	v-0.045l0.045-0.021l0.022-0.023h0.045h0.18l0.18-0.021l0.203-0.047l0.18-0.09l0.135-0.09l0.135-0.156l0.113-0.158l0.112-0.203
	l0.09-0.201l0.09-0.227l2.813-7.717l0.09-0.248l0.09-0.156l0.045-0.068l0.045-0.021l0.067,0.021l0.045,0.068l0.067,0.135
	l0.113,0.225l0.135,0.383l0.27,0.721l0.382,0.988l0.428,1.125l0.473,1.217l0.45,1.17l0.405,1.057l0.337,0.855l0.18,0.359
	l0.157,0.293l0.135,0.248l0.135,0.156l0.135,0.135l0.112,0.09l0.112,0.045l0.113,0.045l0.27,0.068h0.225h0.045l0.045,0.023
	L77.31,47.768z M73.53,43.695l-1.192-3.354l-0.045-0.111l-0.045-0.045l-0.045,0.045l-0.045,0.111l-1.103,3.354v0.045v0.023
	l0.022,0.021H71.1h2.385h0.022l0.022-0.021V43.74V43.695z M110.925,38.52l-0.067-0.021h-0.09h-0.36l-0.315,0.021h-0.225h-0.158
	h-0.18h-0.315l-0.382-0.021h-0.405h-0.113l-0.067,0.021l-0.067,0.023l-0.022,0.045l0.022,0.021v0.023l0.045,0.021l0.045,0.023h0.248
	l0.36,0.045l0.135,0.045l0.112,0.068l0.067,0.09l0.067,0.135l0.045,0.156l0.022,0.182l0.022,0.225l0.022,0.293l0.135,6.322
	l-0.472-0.496l-0.72-0.787l-0.877-0.967l-0.922-1.014l-0.72-0.742l-0.675-0.742l-0.653-0.697l-0.585-0.631l-0.495-0.539
	l-0.405-0.428l-0.27-0.314l-0.157-0.158l-0.113-0.113l-0.112-0.135l-0.113-0.111l-0.09-0.045h-0.045l-0.022,0.021l-0.022,0.045
	l-0.022,0.068l-0.022,0.18v0.314l-0.022,7.133v0.383l-0.023,0.314l-0.022,0.27l-0.022,0.203l-0.045,0.158l-0.067,0.111l-0.09,0.09
	l-0.113,0.045l-0.27,0.068h-0.225h-0.045l-0.022,0.023l-0.022,0.021l-0.022,0.045l0.022,0.045l0.045,0.023l0.068,0.021h0.067h0.405
	l0.36-0.021h0.27l0.158-0.023l0.158,0.023h0.292l0.382,0.021h0.495h0.09l0.067-0.021l0.045-0.023l0.023-0.045v-0.045l-0.023-0.021
	l-0.045-0.023h-0.045h-0.248l-0.36-0.068l-0.112-0.045l-0.113-0.09l-0.067-0.09l-0.067-0.156l-0.045-0.182l-0.045-0.246
	l-0.022-0.293l-0.022-0.338l-0.157-5.963l0.202,0.227l0.27,0.291l0.36,0.406l0.405,0.449l0.45,0.496l0.495,0.539l0.518,0.586
	l0.54,0.584l0.518,0.541l0.54,0.563l0.518,0.539l0.495,0.518l0.45,0.449l0.36,0.383l0.248,0.248l0.135,0.113l0.405,0.404
	l0.248,0.248l0.158,0.135l0.09,0.021h0.022l0.045-0.021v-0.045l0.022-0.068l0.022-0.27v-0.473l0.022-7.313v-0.248l0.023-0.225
	l0.022-0.18l0.045-0.135l0.045-0.113l0.09-0.09l0.113-0.066l0.135-0.045l0.18-0.023h0.112l0.045-0.023l0.045-0.021l0.045-0.023
	v-0.021l-0.022-0.045L110.925,38.52z M67.5,38.408l-0.112,0.021l-0.225,0.045l-0.36,0.045h-0.518h-4.68h-0.158H61.2l-0.292-0.021
	l-0.27-0.023l-0.383-0.09l-0.18-0.066l-0.068,0.09l-0.045,0.156l-0.067,0.227l-0.09,0.404l-0.09,0.404l-0.022,0.248v0.045v0.045
	l0.022,0.023h0.022h0.045l0.022-0.023l0.045-0.045l0.022-0.045l0.067-0.158l0.135-0.246l0.09-0.09l0.09-0.09l0.113-0.068
	l0.135-0.045l0.158-0.045l0.202-0.023l0.225-0.021h0.27l1.845-0.023v5.266l-0.022,0.832V45.9l-0.022,0.629l-0.023,0.473L63.09,47.25
	l-0.067,0.203l-0.045,0.09l-0.045,0.066l-0.09,0.045l-0.067,0.023l-0.203,0.045h-0.18l-0.045,0.023h-0.022l-0.022,0.021v0.045v0.045
	l0.045,0.023l0.067,0.021h0.09h0.337l0.383-0.021h0.315l0.18-0.023l0.157,0.023h0.36l0.495,0.021h0.518h0.09l0.045-0.021
	l0.045-0.045l0.022-0.023l-0.022-0.045v-0.021h-0.045l-0.045-0.023h-0.248l-0.315-0.045l-0.112-0.023l-0.112-0.045l-0.068-0.066
	l-0.067-0.09l-0.045-0.09l-0.045-0.113l-0.022-0.135v-0.113l-0.045-0.473L64.237,45.9v-0.766v-0.832v-5.266l1.575,0.023l0.405,0.021
	l0.315,0.045l0.27,0.045l0.202,0.092l0.135,0.111l0.112,0.113l0.045,0.111l0.045,0.135v0.137l0.023,0.111l0.022,0.068l0.022,0.021
	l0.045,0.023l0.022-0.023l0.022-0.021l0.022-0.045l0.022-0.09v-0.203V39.33l0.022-0.428v-0.338v-0.066v-0.045l-0.022-0.023
	L67.5,38.408z M92.79,46.193l-0.022-0.023L92.7,46.193l-0.022,0.021l-0.023,0.045v0.068l-0.045,0.201l-0.09,0.182l-0.09,0.201
	l-0.113,0.158l-0.112,0.135l-0.158,0.09l-0.157,0.068l-0.18,0.045l-0.427,0.045H90.81h-0.337l-0.27-0.023l-0.225-0.021l-0.203-0.023
	l-0.157-0.045l-0.113-0.045l-0.09-0.066l-0.09-0.068l-0.068-0.113l-0.067-0.156l-0.045-0.248L89.1,46.35l-0.045-0.854v-1.17v-2.229
	v-1.17v-0.742v-0.451l0.022-0.314v-0.156l0.022-0.137l0.045-0.111l0.045-0.09l0.067-0.09l0.068-0.045l0.112-0.045l0.112-0.045
	l0.248-0.023h0.18L90,38.654h0.045l0.022-0.021v-0.045v-0.045l-0.045-0.023l-0.067-0.021h-0.09h-0.36l-0.427,0.021h-0.36h-0.18
	h-0.18H88.02l-0.45-0.021h-0.45h-0.09l-0.067,0.021l-0.022,0.023l-0.022,0.045l0.022,0.045l0.022,0.021h0.022l0.045,0.023h0.203
	l0.203,0.023l0.157,0.045l0.113,0.045l0.09,0.066l0.067,0.068l0.045,0.111l0.045,0.09l0.022,0.137v0.156l0.022,0.314v0.451v0.742
	v1.17v2.205v0.832V45.9l-0.022,0.629l-0.022,0.473l-0.045,0.248l-0.068,0.203l-0.045,0.09l-0.067,0.066l-0.067,0.045l-0.068,0.023
	l-0.202,0.045h-0.18l-0.045,0.023H87.12v0.021v0.045v0.045l0.045,0.023l0.045,0.021h0.09h0.338l0.382-0.021h0.315l0.203-0.023
	l0.563,0.023l0.697,0.021l0.9,0.023l1.17,0.021h0.225l0.158-0.021l0.135-0.023l0.09-0.021l0.067-0.045l0.045-0.068l0.022-0.066
	l0.045-0.092l0.068-0.336l0.045-0.383l0.045-0.338l0.022-0.203v-0.066l-0.022-0.068L92.79,46.193z M98.348,47.746l-0.045-0.023
	h-0.27l-0.292-0.045l-0.135-0.023l-0.112-0.045l-0.068-0.066l-0.067-0.09l-0.045-0.09L97.29,47.25l-0.022-0.135l-0.022-0.113
	L97.2,46.529V45.9l-0.022-0.766v-0.832v-2.205v-1.17v-0.742l0.022-0.451V39.42l0.022-0.156l0.022-0.137l0.022-0.111l0.045-0.09
	l0.067-0.09l0.09-0.045l0.09-0.045l0.112-0.045l0.18-0.023h0.135l0.022-0.023h0.045l0.022-0.021v-0.045v-0.045l-0.045-0.023
	l-0.068-0.021h-0.09h-0.337l-0.383,0.021h-0.337H96.66h-0.158h-0.337l-0.405-0.021H95.4h-0.09l-0.045,0.021l-0.045,0.023
	l-0.023,0.045l0.023,0.045l0.022,0.021h0.022l0.045,0.023h0.18l0.202,0.045l0.09,0.023l0.09,0.045l0.067,0.066l0.045,0.068
	l0.068,0.09l0.022,0.111l0.022,0.137l0.022,0.156v0.314l0.022,0.451v0.742v1.17v2.205v0.832V45.9l-0.022,0.629l-0.045,0.473
	L96.03,47.25l-0.067,0.203l-0.045,0.09l-0.045,0.066l-0.067,0.045l-0.09,0.023l-0.18,0.045h-0.203l-0.045,0.023h-0.022l-0.022,0.021
	v0.045l0.022,0.045l0.022,0.023l0.067,0.021h0.09h0.338l0.382-0.021h0.337l0.158-0.023l0.18,0.023h0.36l0.472,0.021h0.518h0.09
	l0.068-0.021l0.022-0.045l0.022-0.023v-0.045l-0.022-0.021H98.348z M140.265,38.52l-0.068-0.021h-0.09h-0.315l-0.315,0.021h-0.27
	h-0.135h-0.157h-0.337l-0.405-0.021h-0.427h-0.09l-0.067,0.021l-0.022,0.023l-0.022,0.045l0.022,0.045l0.022,0.021h0.022
	l0.045,0.023h0.203l0.203,0.023l0.157,0.045l0.113,0.045l0.09,0.066l0.067,0.068l0.045,0.111l0.045,0.09l0.022,0.137v0.156
	l0.022,0.314v0.451v0.742v1.17v1.553v0.473l-0.022,0.449L138.555,45l-0.068,0.404l-0.09,0.361l-0.135,0.338l-0.068,0.18l-0.09,0.135
	l-0.09,0.158l-0.113,0.135l-0.18,0.18l-0.203,0.18l-0.225,0.158l-0.248,0.135l-0.27,0.09l-0.27,0.09l-0.27,0.045l-0.292,0.021
	l-0.248-0.021h-0.247l-0.248-0.045l-0.225-0.068l-0.225-0.09l-0.225-0.111l-0.225-0.158l-0.225-0.203l-0.203-0.201l-0.18-0.227
	l-0.157-0.291l-0.135-0.338l-0.112-0.383L133.223,45l-0.068-0.539l-0.022-0.607v-1.756v-1.17l0.022-0.742v-0.451l0.023-0.314v-0.156
	l0.022-0.137l0.045-0.111l0.045-0.09l0.045-0.09l0.09-0.068l0.09-0.045l0.112-0.021l0.18-0.023h0.135l0.022-0.023h0.045l0.023-0.021
	v-0.045v-0.045l-0.045-0.023l-0.067-0.021h-0.09h-0.315l-0.383,0.021h-0.337h-0.18h-0.203h-0.36l-0.428-0.021h-0.45h-0.09
	l-0.067,0.021l-0.022,0.023l-0.022,0.045l0.022,0.045l0.022,0.021h0.022l0.045,0.023h0.203l0.203,0.023l0.157,0.045l0.112,0.045
	l0.09,0.066l0.067,0.068l0.045,0.111l0.045,0.09l0.022,0.137v0.156l0.023,0.314v0.451v0.742v1.17v1.822l0.022,0.338v0.293
	l0.022,0.291l0.045,0.271l0.045,0.246l0.045,0.248l0.067,0.203l0.068,0.203l0.09,0.201l0.067,0.158l0.09,0.156l0.112,0.158
	l0.203,0.27l0.202,0.227l0.18,0.156l0.18,0.135l0.18,0.113l0.18,0.09l0.382,0.158l0.36,0.111l0.337,0.068l0.315,0.045l0.27,0.021
	h0.18h0.293l0.292-0.045l0.315-0.045l0.337-0.066l0.315-0.135l0.337-0.158l0.18-0.09l0.157-0.113l0.18-0.135l0.158-0.135l0.18-0.18
	l0.158-0.18l0.135-0.203l0.135-0.203l0.112-0.225l0.09-0.225l0.068-0.225l0.067-0.248l0.112-0.494l0.045-0.518l0.045-0.518v-0.518
	v-1.328v-1.17v-0.742l0.022-0.451V39.42l0.022-0.156l0.022-0.137l0.022-0.111l0.045-0.09l0.067-0.09l0.068-0.045l0.112-0.045
	l0.112-0.045l0.18-0.023h0.135l0.022-0.023h0.045l0.022-0.021v-0.045l-0.022-0.045L140.265,38.52z M278.955,45.697l-0.045-0.021
	l-0.022-0.023h-0.045l-0.045,0.045l-0.022,0.045l-0.022,0.09l-0.046,0.227l-0.09,0.291l-0.067,0.135l-0.067,0.158l-0.09,0.135
	l-0.09,0.113l-0.203,0.156l-0.225,0.158l-0.247,0.09l-0.248,0.09l-0.292,0.068l-0.293,0.021l-0.314,0.023h-0.36h-0.248l-0.225-0.023
	l-0.247-0.021l-0.226-0.045l-0.225-0.045l-0.226-0.068l-0.202-0.09l-0.225-0.066l-0.203-0.113l-0.18-0.09l-0.202-0.113l-0.181-0.135
	l-0.337-0.27l-0.315-0.293l-0.27-0.338l-0.248-0.359l-0.225-0.359l-0.181-0.406l-0.135-0.404l-0.09-0.428l-0.067-0.428l-0.022-0.449
	V42.48l0.045-0.451l0.067-0.426l0.112-0.428l0.067-0.203l0.068-0.203l0.09-0.18l0.112-0.201l0.112-0.182l0.135-0.18l0.136-0.156
	l0.18-0.182l0.18-0.156l0.203-0.158l0.27-0.158l0.315-0.135l0.359-0.111l0.45-0.09l0.495-0.068l0.585-0.021l0.405,0.021l0.382,0.045
	l0.36,0.068l0.338,0.09l0.314,0.09l0.271,0.135l0.225,0.135l0.18,0.135l0.136,0.113l0.09,0.135l0.09,0.135l0.067,0.158l0.067,0.18
	l0.045,0.18l0.022,0.18l0.022,0.18v0.113v0.09l0.045,0.045l0.046,0.023l0.045-0.023l0.045-0.045v-0.09l0.022-0.113v-0.225
	l0.022-0.338v-0.359l0.022-0.359l0.022-0.293v-0.18l0.022-0.135v-0.09v-0.045l-0.022-0.045l-0.045-0.023l-0.09-0.023l-0.293-0.021
	l-0.314-0.045l-0.315-0.045l-0.338-0.068l-0.472-0.066l-0.473-0.045l-0.45-0.045h-0.405h-0.359l-0.338,0.021l-0.315,0.045
	l-0.292,0.045l-0.293,0.045l-0.247,0.068l-0.271,0.066l-0.225,0.092l-0.225,0.09l-0.226,0.111l-0.18,0.113l-0.202,0.111
	l-0.338,0.248l-0.293,0.27l-0.202,0.227l-0.18,0.201l-0.158,0.225l-0.135,0.227l-0.135,0.246l-0.112,0.227l-0.112,0.225
	l-0.068,0.225l-0.135,0.449l-0.09,0.428l-0.045,0.383l-0.022,0.338l0.022,0.449l0.045,0.473l0.045,0.248l0.045,0.225l0.067,0.248
	l0.067,0.248l0.091,0.225l0.112,0.246l0.135,0.227l0.135,0.225l0.158,0.248l0.18,0.201l0.18,0.225l0.226,0.203l0.18,0.158
	l0.202,0.156l0.203,0.137l0.202,0.135l0.225,0.111l0.226,0.113l0.247,0.111l0.226,0.092l0.27,0.066l0.271,0.068l0.27,0.066
	l0.293,0.045l0.314,0.045l0.315,0.023l0.314,0.021h0.338l0.63-0.021l0.607-0.045l0.293-0.045l0.27-0.045l0.248-0.068l0.202-0.066
	l0.135-0.068l0.09-0.068l0.045-0.09l0.045-0.135l0.113-0.428l0.09-0.494l0.045-0.449l0.045-0.227l-0.022-0.066V45.697z
	 M291.397,47.746l-0.045-0.023h-0.271l-0.292-0.045l-0.135-0.023l-0.09-0.045l-0.091-0.066l-0.067-0.09l-0.045-0.09l-0.022-0.113
	l-0.022-0.135l-0.022-0.113l-0.022-0.473L290.25,45.9l-0.022-0.766v-0.832v-2.205v-1.17l0.022-0.742v-0.451l0.022-0.314v-0.156
	l0.022-0.137l0.045-0.111l0.045-0.09l0.045-0.09l0.09-0.045l0.091-0.045l0.112-0.045l0.18-0.023h0.135l0.022-0.023h0.046
	l0.022-0.021v-0.045v-0.045l-0.046-0.023l-0.067-0.021h-0.09h-0.337l-0.383,0.021h-0.338h-0.157h-0.157h-0.36l-0.428-0.021h-0.449
	h-0.091l-0.067,0.021l-0.045,0.023v0.045v0.045l0.022,0.021h0.045l0.022,0.023h0.226l0.202,0.023l0.135,0.045l0.113,0.045
	l0.09,0.066l0.067,0.068l0.067,0.111l0.022,0.09l0.022,0.137l0.022,0.156l0.022,0.314v0.451v0.742v1.17v0.27v0.045l-0.022,0.023
	h-0.022h-0.022h-5.287h-0.022h-0.022l-0.023-0.023v-0.045v-0.27v-1.17v-0.742v-0.451l0.023-0.314l0.022-0.156l0.022-0.137
	l0.022-0.111l0.045-0.09l0.067-0.09l0.067-0.045l0.09-0.045l0.112-0.045l0.181-0.023h0.135l0.045-0.023h0.022l0.022-0.021
	l0.022-0.045l-0.022-0.045l-0.022-0.023l-0.067-0.021h-0.09h-0.338l-0.383,0.021h-0.337h-0.157h-0.181h-0.337l-0.45-0.021h-0.45
	h-0.09l-0.067,0.021l-0.022,0.023l-0.022,0.045l0.022,0.045l0.022,0.021h0.022l0.045,0.023h0.202l0.226,0.023l0.135,0.045
	l0.112,0.045l0.09,0.066l0.067,0.068l0.045,0.111l0.046,0.09l0.022,0.137v0.156l0.022,0.314v0.451v0.742v1.17v2.205v0.832V45.9
	l-0.022,0.629l-0.022,0.473l-0.046,0.248l-0.067,0.203l-0.045,0.09l-0.067,0.066l-0.067,0.045l-0.067,0.023l-0.202,0.045h-0.181
	l-0.045,0.023h-0.022l-0.022,0.021v0.045v0.045l0.045,0.023l0.045,0.021h0.09h0.36l0.383-0.021h0.314l0.181-0.023l0.157,0.023h0.359
	l0.495,0.021h0.518h0.09l0.046-0.021l0.045-0.045l0.022-0.023l-0.022-0.045v-0.021h-0.045l-0.046-0.023h-0.247l-0.315-0.045
	l-0.112-0.023l-0.112-0.045l-0.067-0.066l-0.067-0.09l-0.045-0.09l-0.045-0.113l-0.022-0.135v-0.113l-0.045-0.473L283.77,45.9
	v-0.766v-0.832v-1.328v-0.021l0.023-0.023l0.022-0.021h0.022h5.287h0.022l0.022,0.021l0.022,0.023v0.021v1.328v0.832V45.9
	l-0.022,0.629l-0.045,0.473l-0.045,0.248l-0.045,0.203l-0.045,0.09l-0.067,0.066l-0.067,0.045l-0.091,0.023l-0.18,0.045h-0.18
	l-0.067,0.023h-0.022l-0.022,0.021v0.045l0.022,0.045l0.022,0.023l0.067,0.021h0.09h0.337l0.383-0.021h0.338l0.157-0.023l0.18,0.023
	h0.36l0.473,0.021h0.518h0.09l0.067-0.021l0.045-0.045v-0.023v-0.045l-0.022-0.021H291.397z M267.997,46.283l-0.022-0.045
	l-0.045-0.023l-0.045,0.023l-0.022,0.021l-0.022,0.068l-0.022,0.09l-0.022,0.18l-0.045,0.158l-0.067,0.135l-0.045,0.111l-0.09,0.09
	l-0.067,0.092l-0.113,0.066l-0.112,0.045l-0.135,0.045l-0.135,0.045l-0.158,0.023l-0.157,0.021h-0.314l-0.293,0.023l-0.405-0.023
	l-0.314-0.021l-0.136-0.023l-0.112-0.045l-0.112-0.045l-0.09-0.045l-0.067-0.066l-0.045-0.068l-0.045-0.068l-0.045-0.111
	l-0.046-0.225l-0.022-0.293v-0.383v-0.607v-0.652v-0.473v-1.102v-0.047l0.022-0.021l0.023-0.023h0.045h0.314l0.518,0.023
	l0.563,0.021l0.383,0.023l0.157,0.023l0.135,0.045l0.112,0.045l0.091,0.045l0.045,0.066l0.045,0.068l0.045,0.066l0.022,0.068
	l0.045,0.225v0.18v0.045l0.022,0.045l0.022,0.023h0.045l0.045-0.023l0.022-0.045l0.022-0.09v-0.066v-0.135v-0.203l0.022-0.248
	l0.022-0.225l0.022-0.27l0.046-0.203l0.022-0.135v-0.068v-0.066v-0.023l-0.022-0.021h-0.023l-0.09,0.045l-0.112,0.111l-0.09,0.09
	l-0.135,0.045l-0.158,0.023l-0.202,0.023l-0.405,0.021h-0.63h-0.607h-0.337h-0.022l-0.023-0.021l-0.022-0.047v-0.045v-3.441v-0.068
	l0.022-0.021l0.023-0.023l0.022-0.021l0.292,0.021h0.54h0.54l0.338,0.023l0.225,0.021l0.18,0.045l0.158,0.045l0.112,0.045
	l0.067,0.068l0.067,0.068l0.045,0.066l0.022,0.068l0.067,0.246l0.022,0.203v0.068l0.022,0.045l0.022,0.021l0.045,0.023l0.046-0.023
	l0.022-0.021l0.022-0.045v-0.045l0.022-0.182l0.022-0.246V39.24l0.022-0.158l0.067-0.381l0.022-0.203V38.43l-0.045-0.045
	l-0.09,0.045l-0.09,0.023l-0.203,0.045l-0.337,0.021h-0.54h-0.945h-0.923h-0.427h-0.181h-0.337l-0.45-0.021h-0.45h-0.09
	l-0.045,0.021l-0.045,0.023v0.045v0.045l0.022,0.021h0.022l0.045,0.023h0.225l0.203,0.023l0.135,0.045l0.112,0.045l0.09,0.066
	l0.067,0.068l0.045,0.111l0.045,0.09l0.023,0.137l0.022,0.156v0.314v0.451l0.022,0.742v1.17v2.205v0.832l-0.022,0.766l-0.022,0.629
	l-0.023,0.473l-0.045,0.248l-0.067,0.203l-0.045,0.09l-0.045,0.066l-0.067,0.045l-0.09,0.023l-0.18,0.045h-0.203l-0.045,0.023
	h-0.022l-0.022,0.021v0.045v0.045l0.045,0.023l0.067,0.021h0.09h0.338l0.383-0.021h0.337l0.158-0.023l0.359,0.023l0.607,0.021
	l0.878,0.023l1.215,0.021l0.315-0.021l0.18-0.023l0.067-0.045l0.045-0.045l0.045-0.09l0.022-0.113l0.067-0.27l0.045-0.383
	l0.045-0.359l0.022-0.18l-0.022-0.068V46.283z M335.947,42.457l0.022,0.271v0.246v0.271l-0.022,0.246l-0.022,0.271l-0.045,0.246
	l-0.045,0.248l-0.067,0.225L335.7,44.73l-0.09,0.225l-0.091,0.225l-0.09,0.225l-0.112,0.203l-0.112,0.225l-0.135,0.182l-0.136,0.201
	l-0.157,0.18l-0.157,0.182l-0.18,0.18l-0.158,0.156l-0.202,0.158l-0.18,0.135l-0.203,0.135l-0.202,0.113l-0.226,0.111l-0.225,0.113
	l-0.225,0.09l-0.248,0.09l-0.225,0.068l-0.271,0.045l-0.247,0.045l-0.271,0.045l-0.27,0.021h-0.271l-0.314-0.021l-0.315-0.023
	l-0.292-0.021l-0.271-0.045l-0.27-0.068l-0.248-0.09l-0.247-0.09l-0.247-0.09l-0.226-0.113l-0.202-0.135l-0.203-0.111l-0.202-0.158
	l-0.18-0.135l-0.181-0.158l-0.157-0.18l-0.157-0.18l-0.271-0.359l-0.225-0.383l-0.202-0.406l-0.158-0.426l-0.112-0.428l-0.09-0.428
	l-0.045-0.428l-0.022-0.428l0.022-0.383l0.045-0.404l0.09-0.406l0.135-0.404l0.158-0.428l0.202-0.383l0.225-0.404l0.293-0.359
	l0.157-0.18l0.158-0.182l0.18-0.156l0.18-0.158l0.203-0.158l0.202-0.135l0.202-0.111l0.226-0.135l0.247-0.09l0.248-0.113l0.27-0.068
	l0.27-0.066l0.271-0.068l0.292-0.021l0.315-0.045h0.315l0.518,0.021l0.494,0.068l0.473,0.09l0.45,0.135l0.428,0.18l0.405,0.225
	l0.202,0.113l0.18,0.135l0.181,0.135l0.157,0.135l0.157,0.158l0.157,0.18l0.136,0.158l0.135,0.18l0.135,0.203l0.112,0.18
	l0.112,0.201l0.091,0.227l0.09,0.201l0.067,0.248l0.067,0.225l0.045,0.248l0.045,0.248L335.947,42.457z M334.777,43.336
	l-0.022-0.541l-0.045-0.518l-0.112-0.473l-0.135-0.449l-0.158-0.404l-0.202-0.383l-0.225-0.338l-0.248-0.314l-0.27-0.271
	l-0.293-0.246l-0.314-0.203l-0.338-0.158l-0.338-0.135l-0.359-0.09l-0.36-0.045l-0.36-0.021l-0.382,0.021l-0.36,0.045l-0.36,0.068
	l-0.337,0.111l-0.315,0.158l-0.314,0.18l-0.271,0.203l-0.247,0.225l-0.248,0.293l-0.202,0.291l-0.18,0.338l-0.136,0.361
	l-0.112,0.404l-0.09,0.428l-0.067,0.473v0.494v0.518l0.067,0.518l0.09,0.473l0.136,0.449l0.18,0.428l0.18,0.406l0.226,0.359
	l0.27,0.314l0.271,0.293l0.314,0.27l0.315,0.225l0.359,0.182l0.36,0.135l0.383,0.111l0.404,0.068l0.428,0.021l0.202-0.021
	l0.248-0.023l0.27-0.045l0.271-0.066l0.292-0.113l0.293-0.135l0.27-0.158l0.293-0.225l0.247-0.246l0.248-0.293l0.112-0.18
	l0.112-0.182l0.09-0.18l0.09-0.201l0.091-0.227l0.067-0.246l0.067-0.248l0.067-0.27l0.045-0.271l0.022-0.291l0.022-0.316V43.336z
	 M316.327,42.457l0.022,0.271v0.246v0.271l-0.022,0.246l-0.022,0.271l-0.045,0.246l-0.045,0.248l-0.067,0.225l-0.067,0.248
	l-0.067,0.225l-0.09,0.225l-0.113,0.225l-0.112,0.203l-0.112,0.225l-0.135,0.182l-0.135,0.201l-0.158,0.18L315,46.576l-0.157,0.18
	l-0.181,0.156l-0.18,0.158l-0.202,0.135l-0.203,0.135l-0.202,0.113l-0.225,0.111l-0.226,0.113l-0.225,0.09l-0.226,0.09l-0.247,0.068
	l-0.247,0.045l-0.271,0.045l-0.27,0.045l-0.271,0.021h-0.27l-0.315-0.021l-0.315-0.023l-0.292-0.021l-0.271-0.045l-0.27-0.068
	l-0.247-0.09l-0.248-0.09l-0.247-0.09l-0.226-0.113l-0.202-0.135l-0.202-0.111l-0.203-0.158l-0.18-0.135l-0.157-0.158l-0.181-0.18
	l-0.135-0.18l-0.27-0.359l-0.248-0.383l-0.202-0.406l-0.158-0.426l-0.112-0.428l-0.09-0.428l-0.045-0.428l-0.022-0.428l0.022-0.383
	l0.045-0.404l0.09-0.406l0.136-0.404l0.157-0.428l0.202-0.383l0.248-0.404l0.27-0.359l0.157-0.18l0.158-0.182l0.18-0.156l0.18-0.158
	l0.203-0.158l0.202-0.135l0.225-0.111l0.226-0.135l0.225-0.09l0.248-0.113l0.27-0.068l0.271-0.066l0.27-0.068l0.315-0.021
	l0.292-0.045h0.315l0.518,0.021l0.495,0.068l0.472,0.09l0.473,0.135l0.428,0.18l0.405,0.225l0.18,0.113l0.18,0.135l0.181,0.135
	l0.157,0.135l0.18,0.158l0.135,0.18l0.158,0.158l0.112,0.18l0.135,0.203l0.112,0.18l0.113,0.201l0.09,0.227l0.09,0.201l0.067,0.248
	l0.067,0.225l0.045,0.248l0.045,0.248L316.327,42.457z M315.157,43.336l-0.022-0.541l-0.045-0.518l-0.112-0.473l-0.135-0.449
	l-0.158-0.404l-0.202-0.383l-0.225-0.338l-0.248-0.314l-0.27-0.271l-0.293-0.246l-0.314-0.203l-0.338-0.158l-0.338-0.135
	l-0.337-0.09l-0.36-0.045l-0.382-0.021l-0.383,0.021l-0.36,0.045l-0.359,0.068l-0.338,0.111l-0.315,0.158l-0.292,0.18l-0.293,0.203
	l-0.247,0.225l-0.225,0.293l-0.203,0.291l-0.18,0.338l-0.157,0.361l-0.113,0.404l-0.09,0.428l-0.045,0.473l-0.022,0.494l0.022,0.518
	l0.045,0.518l0.112,0.473l0.113,0.449l0.18,0.428l0.18,0.406l0.248,0.359l0.247,0.314l0.271,0.293l0.314,0.27l0.338,0.225
	l0.337,0.182l0.36,0.135l0.405,0.111l0.382,0.068l0.428,0.021l0.226-0.021l0.247-0.023l0.247-0.045l0.293-0.066l0.27-0.113
	l0.293-0.135l0.27-0.158l0.293-0.225l0.247-0.246l0.248-0.293l0.112-0.18l0.112-0.182l0.09-0.18l0.091-0.201l0.09-0.227l0.09-0.246
	L315,44.82l0.067-0.27l0.045-0.271l0.022-0.291l0.022-0.316V43.336z M303.975,38.52l-0.067-0.021h-0.09h-0.36l-0.314,0.021h-0.225
	h-0.158h-0.18h-0.315l-0.382-0.021h-0.405h-0.112l-0.067,0.021l-0.067,0.023v0.045v0.021v0.023l0.045,0.021l0.045,0.023h0.247
	l0.36,0.045l0.135,0.045l0.112,0.068l0.067,0.09l0.067,0.135l0.046,0.156l0.022,0.182l0.022,0.225l0.022,0.293l0.135,6.322
	l-0.473-0.496l-0.72-0.787l-0.878-0.967l-0.922-1.014l-0.721-0.742l-0.675-0.742l-0.652-0.697l-0.585-0.631l-0.495-0.539
	l-0.405-0.428l-0.27-0.314l-0.157-0.158l-0.113-0.113l-0.112-0.135l-0.112-0.111l-0.09-0.045h-0.045l-0.022,0.021l-0.022,0.045
	l-0.022,0.068l-0.022,0.18v0.314l-0.023,7.133v0.383v0.314l-0.022,0.27l-0.045,0.203l-0.045,0.158l-0.067,0.111l-0.09,0.09
	l-0.09,0.045l-0.293,0.068h-0.225h-0.045l-0.022,0.023l-0.022,0.021v0.045v0.045l0.045,0.023l0.067,0.021h0.067h0.405l0.359-0.021
	h0.293l0.135-0.023l0.157,0.023h0.293l0.383,0.021h0.495h0.09l0.09-0.021l0.022-0.023l0.022-0.045v-0.045l-0.022-0.021l-0.045-0.023
	h-0.022h-0.271l-0.359-0.068l-0.113-0.045l-0.112-0.09l-0.067-0.09l-0.067-0.156l-0.045-0.182l-0.045-0.246l-0.022-0.293
	l-0.022-0.338l-0.157-5.963l0.202,0.227l0.27,0.291l0.36,0.406l0.405,0.449l0.45,0.496l0.494,0.539l0.54,0.586l0.54,0.584
	l0.495,0.541l0.54,0.563l0.518,0.539l0.495,0.518l0.45,0.449l0.359,0.383l0.248,0.248l0.135,0.113l0.405,0.404l0.247,0.248
	l0.158,0.135l0.09,0.021h0.045l0.022-0.021v-0.045l0.022-0.068l0.022-0.27v-0.473l0.022-7.313v-0.248l0.022-0.225l0.022-0.18
	l0.045-0.135l0.045-0.113l0.09-0.09l0.113-0.066l0.135-0.045l0.18-0.023h0.112l0.067-0.023l0.045-0.021l0.023-0.023v-0.021
	l-0.023-0.045L303.975,38.52z M260.145,38.408l-0.135,0.021l-0.225,0.045l-0.36,0.045h-0.518h-4.68h-0.157h-0.248l-0.292-0.021
	l-0.271-0.023l-0.382-0.09l-0.181-0.066l-0.067,0.09l-0.045,0.156l-0.045,0.227l-0.112,0.404l-0.09,0.404l-0.022,0.248v0.045
	l0.022,0.045v0.023h0.045h0.022l0.022-0.023l0.045-0.045l0.022-0.045l0.067-0.158l0.135-0.246l0.09-0.09l0.091-0.09l0.112-0.068
	l0.135-0.045l0.157-0.045l0.203-0.023l0.225-0.021h0.271l1.845-0.023v5.266v0.832l-0.022,0.766v0.629l-0.045,0.473l-0.045,0.248
	l-0.068,0.203l-0.045,0.09l-0.045,0.066l-0.067,0.045l-0.09,0.023l-0.18,0.045h-0.203l-0.045,0.023h-0.022l-0.022,0.021v0.045v0.045
	l0.045,0.023l0.067,0.021h0.091h0.337l0.383-0.021h0.337l0.158-0.023l0.157,0.023h0.383l0.473,0.021h0.517h0.091l0.067-0.021
	l0.022-0.045l0.022-0.023v-0.045l-0.022-0.021h-0.045l-0.045-0.023h-0.248l-0.314-0.045l-0.113-0.023l-0.112-0.045l-0.067-0.066
	l-0.067-0.09l-0.045-0.09l-0.022-0.113l-0.022-0.135l-0.022-0.113l-0.045-0.473V45.9l-0.022-0.766v-0.832v-5.266l1.574,0.023
	l0.405,0.021l0.338,0.045l0.247,0.045l0.203,0.092l0.135,0.111l0.112,0.113l0.045,0.111l0.045,0.135v0.137l0.022,0.111l0.022,0.068
	l0.022,0.021l0.045,0.023l0.022-0.023l0.045-0.021v-0.045l0.023-0.09v-0.203l0.022-0.383v-0.428v-0.338v-0.066v-0.045l-0.022-0.023
	L260.145,38.408z M347.49,43.246h-0.09h-0.338h-0.383l-0.337,0.021h-0.158h-0.157l-0.359-0.021h-0.45h-0.428h-0.09l-0.067,0.021
	l-0.045,0.023v0.045v0.021l0.022,0.023l0.045,0.021h0.022l0.225,0.023l0.203,0.021l0.157,0.045l0.135,0.068l0.112,0.09l0.067,0.113
	l0.045,0.156l0.022,0.203l0.023,0.27v0.338v2.115l-0.023,0.135l-0.045,0.135l-0.067,0.09l-0.112,0.068l-0.135,0.066l-0.157,0.068
	l-0.181,0.045l-0.202,0.021l-0.383,0.045l-0.359,0.023l-0.428-0.023l-0.428-0.045l-0.428-0.111l-0.404-0.135l-0.203-0.068
	l-0.202-0.113l-0.203-0.111l-0.202-0.113l-0.202-0.135l-0.181-0.135l-0.202-0.18l-0.18-0.158l-0.181-0.201l-0.202-0.271
	l-0.225-0.338l-0.226-0.426l-0.09-0.227l-0.09-0.246l-0.09-0.248l-0.067-0.27l-0.067-0.293l-0.046-0.293l-0.022-0.314l-0.022-0.314
	l0.022-0.271v-0.27l0.046-0.248l0.022-0.246l0.067-0.248l0.045-0.225l0.067-0.203l0.09-0.203l0.067-0.201l0.112-0.18l0.091-0.182
	l0.112-0.156l0.112-0.158l0.112-0.135l0.135-0.135l0.136-0.113l0.18-0.135l0.18-0.111l0.181-0.113l0.157-0.09l0.359-0.135
	l0.338-0.113l0.338-0.066l0.314-0.023l0.315-0.021h0.292h0.293l0.292,0.021l0.271,0.023l0.247,0.045l0.45,0.09l0.405,0.135
	l0.337,0.158l0.271,0.156l0.112,0.09l0.112,0.09l0.067,0.09l0.068,0.09l0.135,0.248l0.067,0.225l0.045,0.203l0.022,0.158v0.066
	l0.022,0.068l0.022,0.045h0.045h0.045l0.045-0.045l0.022-0.09v-0.113v-0.787l0.045-0.518l0.022-0.293l0.023-0.18l-0.023-0.045
	l-0.022-0.021l-0.045-0.023l-0.067-0.023l-0.247-0.021l-0.271-0.023l-0.27-0.045l-0.226-0.045l-0.292-0.045l-0.45-0.066
	l-0.563-0.068l-0.585-0.021h-0.383l-0.382,0.021l-0.428,0.045l-0.405,0.068l-0.428,0.09l-0.427,0.135l-0.226,0.09l-0.225,0.113
	l-0.202,0.09l-0.203,0.135L340.2,39.24l-0.203,0.158l-0.18,0.18l-0.202,0.18l-0.181,0.203l-0.157,0.225l-0.157,0.225l-0.157,0.248
	l-0.136,0.27l-0.135,0.293l-0.09,0.293l-0.09,0.291l-0.09,0.338l-0.045,0.338l-0.022,0.359l-0.023,0.361l0.023,0.291l0.022,0.271
	l0.022,0.291l0.067,0.271l0.067,0.246l0.067,0.248l0.09,0.248l0.09,0.246l0.112,0.227l0.113,0.201l0.135,0.203l0.112,0.18
	l0.135,0.18l0.136,0.158l0.157,0.158l0.135,0.135l0.271,0.201l0.27,0.203l0.271,0.158l0.27,0.135l0.293,0.135l0.27,0.113l0.293,0.09
	l0.27,0.066l0.54,0.113l0.495,0.066l0.473,0.023l0.382,0.021h0.293l0.314-0.021l0.338-0.045l0.338-0.068l0.359-0.066l0.338-0.09
	l0.338-0.137l0.314-0.135l0.045-0.045l0.045-0.021l0.022-0.045l0.022-0.045l0.022-0.18v-0.338v-1.395V45.09v-0.338l0.022-0.291
	v-0.316l0.022-0.135l0.022-0.135l0.023-0.111l0.045-0.092l0.067-0.09l0.09-0.066l0.09-0.045l0.112-0.023l0.181-0.021l0.135-0.023
	h0.022l0.045-0.021l0.022-0.023v-0.021v-0.045l-0.045-0.023L347.49,43.246z M211.072,38.408l-0.112,0.021l-0.225,0.045l-0.36,0.045
	h-0.518h-4.68h-0.158h-0.247l-0.292-0.021l-0.271-0.023l-0.383-0.09l-0.18-0.066l-0.067,0.09l-0.045,0.156l-0.067,0.227l-0.09,0.404
	l-0.091,0.404l-0.022,0.248v0.045v0.045l0.022,0.023h0.022h0.046l0.022-0.023l0.045-0.045l0.022-0.045l0.067-0.158l0.135-0.246
	l0.09-0.09l0.09-0.09l0.113-0.068l0.135-0.045l0.157-0.045l0.202-0.023l0.226-0.021h0.27l1.846-0.023v5.266l-0.022,0.832V45.9
	l-0.022,0.629l-0.023,0.473l-0.045,0.248l-0.067,0.203l-0.045,0.09l-0.045,0.066l-0.09,0.045l-0.067,0.023l-0.203,0.045h-0.18
	l-0.045,0.023h-0.022l-0.022,0.021v0.045v0.045l0.045,0.023l0.067,0.021h0.09h0.338l0.383-0.021h0.314l0.181-0.023l0.157,0.023
	h0.359l0.495,0.021h0.518h0.09l0.045-0.021l0.046-0.045l0.022-0.023l-0.022-0.045v-0.021h-0.046l-0.045-0.023h-0.247l-0.315-0.045
	l-0.112-0.023l-0.112-0.045l-0.067-0.066l-0.067-0.09l-0.045-0.09L207.9,47.25l-0.022-0.135v-0.113l-0.046-0.473L207.81,45.9v-0.766
	v-0.832v-5.266l1.575,0.023l0.405,0.021l0.315,0.045l0.27,0.045l0.202,0.092l0.136,0.111l0.112,0.113l0.045,0.111l0.045,0.135v0.137
	l0.022,0.111l0.022,0.068l0.022,0.021l0.045,0.023l0.022-0.023l0.022-0.021l0.022-0.045l0.022-0.09v-0.203V39.33l0.022-0.428v-0.338
	v-0.066v-0.045l-0.022-0.023L211.072,38.408z M201.105,47.746l-0.046-0.023h-0.247l-0.293-0.045l-0.135-0.023l-0.112-0.045
	l-0.067-0.066l-0.067-0.09l-0.045-0.09l-0.022-0.113l-0.022-0.135l-0.022-0.113l-0.045-0.473V45.9l-0.023-0.766v-0.832v-2.205v-1.17
	v-0.742l0.023-0.451V39.42l0.022-0.156l0.022-0.137l0.022-0.111l0.045-0.09l0.067-0.09l0.067-0.045l0.112-0.045l0.112-0.045
	l0.181-0.023h0.135l0.022-0.023h0.045l0.022-0.021v-0.045l-0.022-0.045l-0.022-0.023l-0.067-0.021h-0.09h-0.338l-0.383,0.021h-0.337
	h-0.157h-0.158h-0.337l-0.405-0.021h-0.36h-0.09l-0.067,0.021L198,38.543l-0.022,0.045L198,38.633l0.022,0.021h0.022l0.045,0.023
	h0.157l0.226,0.045l0.09,0.023l0.09,0.045l0.067,0.066l0.045,0.068l0.045,0.09l0.046,0.111l0.022,0.137l0.022,0.156v0.314
	l0.022,0.451v0.742v1.17v2.205v0.832L198.9,45.9v0.629l-0.045,0.473l-0.046,0.248l-0.067,0.203l-0.045,0.09l-0.045,0.066
	l-0.067,0.045l-0.09,0.023l-0.18,0.045h-0.203l-0.045,0.023h-0.022l-0.022,0.021v0.045v0.045l0.045,0.023l0.067,0.021h0.09h0.338
	l0.383-0.021h0.337l0.158-0.023l0.157,0.023h0.383l0.472,0.021h0.518h0.09l0.068-0.021l0.022-0.045l0.022-0.023v-0.045l-0.022-0.021
	H201.105z M221.085,38.498h-0.067h-0.271l-0.382,0.021h-0.36h-0.202h-0.112h-0.203l-0.247-0.021h-0.248h-0.09l-0.067,0.021
	l-0.022,0.023l-0.022,0.021l0.022,0.045l0.022,0.023l0.067,0.045l0.067,0.023l0.112,0.045l0.046,0.066l0.045,0.113v0.111v0.135
	l-0.045,0.158l-0.068,0.158l-0.09,0.18l-0.157,0.27l-0.247,0.404l-0.293,0.541l-0.338,0.584l-0.337,0.586l-0.315,0.539l-0.225,0.451
	l-0.157,0.293l-0.158-0.248l-0.27-0.473l-0.338-0.586l-0.382-0.652l-0.383-0.674l-0.338-0.586l-0.27-0.449l-0.157-0.27l-0.068-0.135
	l-0.045-0.113l-0.022-0.113l-0.022-0.111l0.022-0.068l0.022-0.066l0.045-0.045l0.068-0.045l0.135-0.068l0.067-0.045l-0.022-0.045
	l-0.022-0.023l-0.045-0.021h-0.09h-0.338l-0.315,0.021h-0.247h-0.135h-0.181h-0.359l-0.405-0.021h-0.292h-0.068l-0.045,0.021
	l-0.045,0.023v0.045v0.021l0.045,0.045h0.022l0.045,0.023h0.113l0.135,0.045l0.157,0.068l0.135,0.066l0.181,0.158l0.225,0.201
	l0.226,0.248l0.225,0.314l0.225,0.338l0.293,0.473l0.337,0.563l0.36,0.586l0.36,0.584l0.292,0.496l0.226,0.359l0.09,0.203
	L216,43.627l0.09,0.271l0.045,0.156l0.022,0.18l0.022,0.203v0.248v1.057v0.203v0.314l-0.022,0.338l-0.022,0.404v0.113l-0.022,0.135
	l-0.045,0.113l-0.022,0.09l-0.067,0.09l-0.067,0.066l-0.067,0.045l-0.09,0.023l-0.181,0.045h-0.18l-0.045,0.023h-0.045l-0.022,0.021
	v0.045l0.022,0.045l0.022,0.023l0.067,0.021h0.09h0.338l0.382-0.021h0.338l0.157-0.023l0.181,0.023h0.359l0.473,0.021h0.518h0.09
	l0.067-0.021l0.045-0.045v-0.023v-0.045l-0.022-0.021h-0.022l-0.045-0.023h-0.27l-0.293-0.045l-0.135-0.023l-0.112-0.045
	l-0.067-0.066l-0.068-0.09l-0.067-0.09l-0.022-0.113l-0.022-0.135l-0.022-0.113l-0.022-0.404V46.26l-0.022-0.314v-0.203v-1.057
	l0.022-0.314l0.022-0.293V43.92l0.045-0.156l0.045-0.158l0.068-0.18l0.135-0.293l0.27-0.473l0.338-0.584l0.359-0.631l0.405-0.631
	l0.36-0.584l0.292-0.473l0.203-0.27l0.202-0.225l0.135-0.182l0.158-0.135l0.18-0.111l0.157-0.068l0.135-0.066l0.158-0.023h0.112
	l0.067-0.023l0.045-0.021l0.045-0.023v-0.045v-0.021l-0.045-0.023L221.085,38.498z M194.782,44.775l-0.045-0.18l-0.067-0.158
	l-0.067-0.18l-0.09-0.18L194.4,43.92l-0.136-0.18l-0.157-0.18l-0.157-0.203l-0.405-0.383l-0.495-0.404l-0.359-0.27l-0.383-0.338
	l-0.338-0.314L191.7,41.4l-0.203-0.248l-0.135-0.225l-0.112-0.248l-0.045-0.225l-0.022-0.248v-0.18l0.022-0.156l0.045-0.137
	l0.045-0.135l0.067-0.135l0.067-0.111l0.09-0.113l0.113-0.113l0.09-0.066l0.135-0.09l0.112-0.068l0.136-0.045l0.135-0.045
	l0.157-0.021l0.157-0.023l0.158-0.021l0.202,0.021h0.18l0.181,0.045l0.157,0.023l0.247,0.09l0.203,0.111l0.157,0.113l0.112,0.113
	l0.067,0.09l0.045,0.066l0.045,0.135l0.068,0.158l0.022,0.18l0.022,0.135l0.022,0.068v0.066l0.045,0.023l0.045,0.021l0.022-0.021
	l0.045-0.045v-0.09l0.022-0.135v-0.563l0.022-0.383v-0.27l0.022-0.113v-0.045l-0.022-0.023h-0.045l-0.067-0.021h-0.157l-0.271-0.045
	l-0.247-0.068l-0.271-0.021l-0.292-0.045h-0.36l-0.27,0.021l-0.293,0.023l-0.247,0.045l-0.248,0.066l-0.225,0.09l-0.226,0.113
	l-0.18,0.113l-0.18,0.156l-0.158,0.158l-0.135,0.158l-0.135,0.18l-0.09,0.201l-0.09,0.203l-0.045,0.225l-0.046,0.248v0.248
	l0.022,0.314l0.046,0.314l0.045,0.135l0.045,0.158l0.067,0.18l0.09,0.158l0.09,0.156l0.112,0.158l0.136,0.18l0.157,0.18l0.36,0.361
	l0.449,0.404l0.563,0.449l0.36,0.316l0.315,0.293l0.247,0.27l0.18,0.246l0.158,0.271l0.09,0.27l0.067,0.27v0.314v0.137l-0.022,0.156
	l-0.022,0.158l-0.067,0.135l-0.045,0.135l-0.091,0.158l-0.09,0.111l-0.09,0.135l-0.135,0.113l-0.112,0.09l-0.158,0.09l-0.157,0.09
	l-0.18,0.068l-0.181,0.045l-0.202,0.021h-0.225h-0.315l-0.292-0.066l-0.136-0.045l-0.157-0.045l-0.135-0.045l-0.112-0.09
	l-0.136-0.068l-0.112-0.09l-0.09-0.113l-0.112-0.111l-0.067-0.135l-0.067-0.135l-0.068-0.158l-0.045-0.158l-0.022-0.246v-0.227
	v-0.045l-0.022-0.045l-0.022-0.021l-0.045-0.023l-0.045,0.023l-0.022,0.021l-0.022,0.068l-0.022,0.09v0.203l-0.022,0.291
	l-0.022,0.383v0.451v0.201l0.022,0.113l0.045,0.09l0.112,0.068l0.203,0.09l0.18,0.066l0.225,0.045l0.203,0.045l0.427,0.068
	l0.428,0.021l0.248-0.021h0.247l0.248-0.045l0.247-0.068l0.247-0.066l0.226-0.09l0.202-0.113l0.226-0.135l0.135-0.113l0.157-0.111
	l0.112-0.135l0.112-0.137l0.181-0.27l0.135-0.293l0.112-0.27l0.067-0.27l0.022-0.248l0.022-0.201l-0.022-0.383L194.782,44.775z
	 M245.115,38.408l-0.022-0.023l-0.09,0.045l-0.091,0.045l-0.225,0.023l-0.315,0.021h-0.563h-0.989h-0.968h-0.54h-0.18h-0.338
	l-0.45-0.021h-0.45h-0.09l-0.067,0.021l-0.022,0.023l-0.022,0.045l0.022,0.045l0.022,0.021h0.022l0.045,0.023h0.203l0.225,0.023
	l0.135,0.045l0.113,0.045l0.09,0.066l0.067,0.068l0.045,0.111l0.045,0.09l0.022,0.137v0.156l0.022,0.314v0.451v0.742v1.17v2.205
	v0.832V45.9l-0.022,0.629l-0.022,0.473l-0.045,0.248l-0.067,0.203l-0.045,0.09l-0.067,0.066l-0.068,0.045l-0.067,0.023l-0.202,0.045
	h-0.18l-0.045,0.023h-0.022l-0.023,0.021v0.045v0.045l0.046,0.023l0.045,0.021h0.09h0.359l0.383-0.021h0.315l0.18-0.023l0.157,0.023
	h0.36l0.495,0.021h0.518h0.09l0.045-0.021l0.045-0.045l0.022-0.023l-0.022-0.045v-0.021h-0.045l-0.045-0.023h-0.248l-0.314-0.045
	l-0.112-0.023l-0.113-0.045l-0.067-0.066l-0.067-0.09l-0.045-0.09l-0.045-0.113l-0.022-0.135v-0.113l-0.045-0.473L241.83,45.9
	v-0.766v-0.832v-1.057v-0.068l0.022-0.023l0.022-0.021h0.045h0.338h0.563h0.585l0.382,0.021l0.136,0.023l0.135,0.045l0.09,0.045
	l0.09,0.068l0.067,0.066l0.067,0.068l0.046,0.066l0.022,0.068l0.045,0.248l0.022,0.201l0.022,0.045v0.045l0.022,0.023h0.045
	l0.045-0.023l0.045-0.045v-0.09v-0.066v-0.135l0.022-0.227v-0.27l0.022-0.225l0.045-0.27l0.022-0.203l0.022-0.135l0.022-0.068
	v-0.045l-0.022-0.045l-0.022-0.021h-0.022l-0.067,0.045l-0.067,0.09l-0.045,0.045l-0.045,0.045l-0.067,0.045l-0.067,0.021
	l-0.158,0.047l-0.202,0.021h-0.248h-0.292l-1.598,0.023l-0.045-0.023l-0.022-0.021l-0.022-0.023V42.57v-3.443v-0.066l0.022-0.045
	l0.045-0.023h0.045l1.913,0.045h0.18l0.157,0.045l0.112,0.045l0.136,0.045l0.09,0.068l0.067,0.068l0.067,0.066l0.045,0.045
	l0.067,0.27l0.045,0.203v0.068v0.045l0.045,0.021l0.022,0.023l0.045-0.023l0.022-0.021l0.023-0.045l0.022-0.045l0.022-0.182v-0.246
	l0.022-0.248l0.022-0.158l0.045-0.381l0.045-0.203v-0.045l-0.022-0.023L245.115,38.408z M237.353,42.457l0.022,0.271v0.246v0.271
	l-0.022,0.246l-0.022,0.271l-0.045,0.246l-0.045,0.248l-0.067,0.225l-0.067,0.248l-0.091,0.225l-0.09,0.225l-0.09,0.225
	l-0.112,0.203l-0.135,0.225l-0.113,0.182l-0.157,0.201l-0.135,0.18l-0.157,0.182l-0.181,0.18l-0.18,0.156l-0.18,0.158l-0.181,0.135
	l-0.202,0.135l-0.202,0.113l-0.226,0.111l-0.225,0.113l-0.226,0.09l-0.247,0.09l-0.247,0.068l-0.248,0.045l-0.247,0.045
	l-0.271,0.045l-0.27,0.021h-0.293l-0.314-0.021l-0.293-0.023l-0.292-0.021l-0.271-0.045l-0.27-0.068l-0.271-0.09l-0.247-0.09
	l-0.226-0.09l-0.225-0.113l-0.226-0.135l-0.202-0.111l-0.18-0.158l-0.181-0.135l-0.18-0.158l-0.157-0.18l-0.157-0.18l-0.271-0.359
	l-0.225-0.383l-0.203-0.406l-0.157-0.426l-0.112-0.428l-0.09-0.428l-0.045-0.428l-0.022-0.428l0.022-0.383l0.045-0.404l0.09-0.406
	l0.112-0.404l0.18-0.428l0.203-0.383l0.225-0.404l0.293-0.359l0.135-0.18l0.18-0.182l0.158-0.156l0.202-0.158l0.18-0.158
	l0.226-0.135l0.202-0.111l0.225-0.135l0.248-0.09l0.247-0.113l0.248-0.068l0.292-0.066l0.271-0.068l0.292-0.021l0.315-0.045h0.314
	l0.518,0.021l0.495,0.068l0.473,0.09l0.45,0.135l0.428,0.18l0.404,0.225l0.203,0.113l0.18,0.135l0.18,0.135l0.158,0.135l0.157,0.158
	l0.157,0.18l0.135,0.158l0.136,0.18l0.135,0.203l0.112,0.18l0.09,0.201l0.112,0.227l0.067,0.201l0.091,0.248l0.045,0.225
	l0.067,0.248l0.045,0.248L237.353,42.457z M236.183,43.336l-0.022-0.541l-0.067-0.518l-0.09-0.473l-0.136-0.449l-0.157-0.404
	l-0.202-0.383l-0.226-0.338l-0.247-0.314l-0.293-0.271l-0.292-0.246l-0.293-0.203l-0.337-0.158l-0.338-0.135l-0.36-0.09
	l-0.359-0.045l-0.36-0.021l-0.383,0.021l-0.382,0.045l-0.338,0.068l-0.337,0.111l-0.338,0.158l-0.293,0.18l-0.27,0.203l-0.27,0.225
	l-0.226,0.293l-0.202,0.291l-0.181,0.338l-0.135,0.361l-0.135,0.404l-0.067,0.428l-0.067,0.473l-0.022,0.494l0.022,0.518
	l0.067,0.518l0.09,0.473l0.135,0.449l0.158,0.428l0.202,0.406l0.225,0.359l0.271,0.314l0.27,0.293l0.315,0.27l0.314,0.225
	l0.36,0.182l0.36,0.135l0.382,0.111l0.405,0.068l0.405,0.021l0.225-0.021l0.248-0.023l0.27-0.045l0.271-0.066l0.292-0.113
	l0.271-0.135l0.292-0.158l0.271-0.225l0.27-0.246l0.247-0.293l0.113-0.18l0.112-0.182l0.09-0.18l0.09-0.201l0.09-0.227l0.067-0.246
	l0.068-0.248l0.045-0.27l0.045-0.271l0.045-0.291l0.022-0.316V43.336z"/>
<path fill="#8F8F8F" d="M79.184,11.575c0,0.063-0.063,0.087-0.212,0.087c-0.934,0-1.731-0.037-1.794-0.037
	c-0.062,0-1.109,0.037-1.906,0.037c-0.137,0-0.2-0.025-0.2-0.087c0-0.049,0.05-0.099,0.1-0.099c0.149,0,0.76-0.038,0.996-0.087
	c0.412-0.075,0.498-0.262,0.523-0.648c0.038-0.548,0.038-1.619,0.038-2.865v-2.18c0-0.673-0.013-1.209-0.013-1.894
	c0-0.249-0.024-0.386-0.224-0.386c-0.237,0-1.109,0.449-1.42,0.598c-0.062,0.038-0.1,0.05-0.149,0.05
	c-0.038,0-0.075-0.062-0.075-0.112c0-0.038,0.038-0.087,0.087-0.125c0.075-0.05,2.292-1.532,2.404-1.607
	c0.112-0.087,0.211-0.149,0.299-0.149c0.1,0,0.125,0.137,0.125,0.262c0,0.1-0.063,1.333-0.063,3.239h0.001v2.305
	c0,1.246,0,2.317,0.063,2.865c0.05,0.386,0.099,0.573,0.499,0.66c0.187,0.037,0.709,0.075,0.822,0.075
	C79.134,11.476,79.184,11.524,79.184,11.575z M69.65,2.07c-1.719,0-2.977,1.184-2.977,2.903c0,1.046,0.747,2.404,2.517,2.404
	c0.498,0,1.133-0.187,1.494-0.572c0.038-0.038,0.05-0.063,0.05-0.1c0-0.037-0.025-0.087-0.062-0.087
	c-0.038,0-0.087,0.025-0.162,0.075c-0.162,0.1-0.411,0.224-0.997,0.224c-0.337,0-1.869-0.411-1.869-2.479
	c0-0.985,0.586-1.906,1.707-1.906c1.096,0,2.055,1.108,2.055,3.289c0,2.927-1.918,4.996-3.389,5.805
	c-0.075,0.037-0.125,0.1-0.125,0.175c0,0.075,0.05,0.125,0.1,0.125c0.05,0,0.125-0.013,0.2-0.05
	c1.519-0.761,4.311-2.916,4.311-6.416C72.503,3.565,71.407,2.07,69.65,2.07z M64.379,11.476c-0.112,0-0.636-0.038-0.823-0.074
	c-0.398-0.088-0.448-0.274-0.498-0.661c-0.063-0.548-0.063-1.62-0.063-2.865V5.571c0-1.906,0.063-3.14,0.063-3.238
	c0-0.125-0.025-0.262-0.125-0.262c-0.087,0-0.187,0.062-0.3,0.15c-0.112,0.074-2.33,1.556-2.404,1.606
	c-0.05,0.037-0.087,0.087-0.087,0.125c0,0.049,0.037,0.112,0.075,0.112c0.05,0,0.087-0.013,0.149-0.05
	c0.312-0.15,1.184-0.598,1.42-0.598c0.199,0,0.224,0.137,0.224,0.386c0,0.686,0.012,1.222,0.012,1.894v2.18
	c0,1.246,0,2.317-0.037,2.865c-0.025,0.386-0.112,0.573-0.523,0.647c-0.236,0.05-0.847,0.088-0.997,0.088
	c-0.05,0-0.1,0.049-0.1,0.099c0,0.063,0.063,0.087,0.2,0.087c0.798,0,1.843-0.037,1.906-0.037s0.86,0.037,1.794,0.037
	c0.149,0,0.212-0.025,0.212-0.087C64.479,11.525,64.429,11.476,64.379,11.476z M87.444,9.097c0,1.445-1.183,2.74-2.964,2.74
	c-1.558,0-2.828-0.909-2.828-2.417c0-1.396,1.084-2.329,2.218-2.778C82.897,6.069,82.125,5.41,82.125,4.3
	c0-0.946,0.835-2.229,2.654-2.229c1.295,0,2.279,0.685,2.279,1.906c0,1.308-1.083,2.056-1.781,2.404
	C86.099,6.804,87.444,7.564,87.444,9.097z M84.853,6.182c0.486-0.286,1.333-0.785,1.333-2.056c0-0.947-0.598-1.632-1.558-1.632
	c-1.121,0-1.62,0.885-1.62,1.57C83.009,5.11,83.831,5.633,84.853,6.182z M86.485,9.383c0-1.359-1.071-1.957-2.192-2.542
	c-0.922,0.448-1.682,1.208-1.682,2.455c0,1.108,0.81,2.067,1.968,2.067C85.725,11.364,86.485,10.491,86.485,9.383z"/>
<path fill="#940043" d="M57.487,20.907c0-0.266,0.315-1.776,0.348-1.908c0.05-0.216,0.1-0.316,0.199-0.316
	c0.133,0,0.298,0.167,0.713,0.199c0.481,0.05,1.112,0.083,1.66,0.083h6.571c1.063,0,1.46-0.167,1.593-0.167
	c0.116,0,0.132,0.099,0.132,0.349c0,0.348-0.05,1.494-0.05,1.925c-0.016,0.166-0.05,0.266-0.149,0.266
	c-0.133,0-0.167-0.083-0.183-0.332l-0.017-0.183c-0.034-0.431-0.481-0.896-1.958-0.929l-2.091-0.05v6.803
	c0,1.527,0,2.837,0.083,3.551c0.05,0.465,0.149,0.83,0.647,0.896c0.232,0.033,0.597,0.066,0.846,0.066
	c0.182,0,0.266,0.051,0.266,0.133c0,0.115-0.133,0.166-0.316,0.166c-1.095,0-2.14-0.051-2.605-0.051
	c-0.381,0-1.427,0.051-2.09,0.051c-0.216,0-0.332-0.051-0.332-0.166c0-0.083,0.066-0.133,0.266-0.133
	c0.249,0,0.448-0.033,0.597-0.066c0.333-0.066,0.432-0.432,0.481-0.913c0.083-0.697,0.083-2.007,0.083-3.534v-6.803l-2.472,0.067
	c-0.963,0.033-1.361,0.116-1.61,0.481c-0.166,0.249-0.249,0.447-0.282,0.581c-0.033,0.133-0.083,0.199-0.183,0.199
	C57.52,21.172,57.487,21.089,57.487,20.907z M81.628,31.294c0,0.133-0.15,0.167-0.764,0.167c-0.597,0-1.809,0-3.137-0.033
	c-0.298-0.018-0.497-0.018-0.497-0.133c0-0.1,0.066-0.133,0.232-0.149c0.116-0.033,0.232-0.183,0.149-0.382l-1.327-3.519
	c-0.033-0.083-0.083-0.116-0.167-0.116v0.001h-3.701c-0.083,0-0.116,0.032-0.149,0.132l-0.895,2.373
	c-0.167,0.416-0.25,0.813-0.25,1.013c0,0.298,0.149,0.515,0.664,0.515h0.249c0.199,0,0.249,0.032,0.249,0.132
	c0,0.133-0.1,0.167-0.282,0.167c-0.532,0-1.245-0.051-1.759-0.051c-0.183,0-1.095,0.051-1.958,0.051
	c-0.215,0-0.315-0.033-0.315-0.167c0-0.1,0.067-0.132,0.199-0.132c0.15,0,0.382-0.017,0.515-0.033
	c0.763-0.099,1.079-0.664,1.411-1.493l4.166-10.421c0.199-0.481,0.298-0.664,0.464-0.664c0.149,0,0.249,0.149,0.415,0.531
	c0.398,0.913,3.054,7.683,4.116,10.206c0.631,1.493,1.112,1.726,1.46,1.81c0.249,0.05,0.498,0.066,0.697,0.066
	C81.545,31.162,81.628,31.178,81.628,31.294z M75.886,26.199l-1.494-4.099c-0.017-0.066-0.033-0.15-0.083-0.15
	c-0.049,0-0.083,0.083-0.1,0.15l-1.526,4.082c-0.017,0.067,0,0.116,0.066,0.116h3.054C75.886,26.299,75.903,26.25,75.886,26.199z
	 M94.101,19.213c0.215,0,0.415,0.016,0.547,0.049c0.548,0.116,0.681,0.382,0.713,0.947c0.033,0.53,0.033,0.995,0.033,3.518v2.92
	c0,1.527,0,2.837-0.083,3.534c-0.066,0.481-0.149,0.847-0.481,0.913c-0.149,0.033-0.348,0.066-0.598,0.066
	c-0.199,0-0.265,0.051-0.265,0.133c0,0.115,0.116,0.166,0.332,0.166c0.664,0,1.709-0.051,2.091-0.051c1.344,0,2.439,0.1,4.829,0.1
	c0.863,0,0.946-0.082,1.045-0.447c0.133-0.481,0.249-1.727,0.249-1.908c0-0.199-0.017-0.282-0.132-0.282
	c-0.133,0-0.166,0.099-0.182,0.249c-0.033,0.314-0.232,0.779-0.432,0.995c-0.415,0.448-1.063,0.466-1.941,0.466
	c-1.294,0-1.726-0.117-2.008-0.365c-0.349-0.299-0.349-1.443-0.349-3.568v-2.92h-0.001c0-2.523,0-2.987,0.034-3.518
	c0.033-0.581,0.166-0.863,0.614-0.947c0.199-0.032,0.465-0.049,0.648-0.049c0.199,0,0.298-0.033,0.298-0.15
	c0-0.116-0.116-0.149-0.348-0.149c-0.647,0-1.858,0.05-2.257,0.05c-0.448,0-1.493-0.05-2.273-0.05c-0.249,0-0.365,0.033-0.365,0.149
	S93.918,19.213,94.101,19.213z M144.538,31.294c0-0.1,0.067-0.132,0.2-0.132c0.149,0,0.381-0.017,0.514-0.033
	c0.763-0.099,1.078-0.664,1.41-1.493l4.166-10.421c0.199-0.481,0.298-0.664,0.464-0.664c0.15,0,0.249,0.149,0.416,0.531
	c0.397,0.913,3.052,7.683,4.116,10.206c0.63,1.493,1.11,1.726,1.46,1.81c0.248,0.05,0.497,0.066,0.697,0.066
	c0.132,0,0.215,0.016,0.215,0.132c0,0.133-0.149,0.167-0.762,0.167c-0.598,0-1.81,0-3.136-0.034
	c-0.299-0.017-0.498-0.017-0.498-0.133c0-0.1,0.066-0.133,0.232-0.149c0.117-0.033,0.233-0.183,0.15-0.382l-1.329-3.518
	c-0.032-0.083-0.083-0.116-0.165-0.116l0,0h-3.702c-0.083,0-0.116,0.033-0.15,0.133l-0.896,2.373
	c-0.166,0.415-0.25,0.813-0.25,1.013c0,0.298,0.149,0.515,0.664,0.515h0.248c0.2,0,0.25,0.032,0.25,0.132
	c0,0.133-0.099,0.167-0.282,0.167c-0.53,0-1.244-0.052-1.759-0.052c-0.182,0-1.094,0.052-1.958,0.052
	C144.638,31.461,144.538,31.427,144.538,31.294z M149.252,26.183c-0.017,0.067,0,0.116,0.065,0.116h3.054
	c0.083,0,0.099-0.049,0.083-0.1l-1.494-4.099c-0.016-0.066-0.032-0.15-0.083-0.15c-0.05,0-0.083,0.083-0.099,0.15L149.252,26.183z
	 M130.043,31.46c0.862,0,1.643-0.051,1.792-0.051c0.316,0,0.979,0.051,2.058,0.051c0.231,0,0.38-0.033,0.38-0.166
	c0-0.1-0.099-0.133-0.281-0.133c-0.267,0-0.581-0.016-0.863-0.115c-0.332-0.116-0.548-0.548-0.581-1.842l-0.182-6.97h0.05
	c0.299,0.315,2.14,2.39,3.95,4.181c1.726,1.71,3.85,3.884,4.896,4.879c0.183,0.183,0.381,0.364,0.564,0.364
	c0.15,0,0.214-0.149,0.214-0.514l0.183-10.471c0.016-0.93,0.15-1.278,0.615-1.411c0.199-0.049,0.333-0.049,0.498-0.049
	c0.2,0,0.298-0.051,0.298-0.15c0-0.133-0.166-0.15-0.381-0.15c-0.813,0-1.443,0.051-1.626,0.051c-0.348,0-1.146-0.051-2.009-0.051
	c-0.249,0-0.431,0.017-0.431,0.15c0,0.099,0.067,0.15,0.266,0.15c0.232,0,0.631,0,0.879,0.1c0.398,0.166,0.548,0.481,0.564,1.493
	l0.166,7.451h-0.082c-0.282-0.265-2.523-2.654-3.65-3.782c-2.424-2.406-4.946-5.111-5.145-5.327
	c-0.282-0.298-0.432-0.514-0.614-0.514c-0.167,0-0.216,0.232-0.216,0.564l-0.149,9.823c-0.017,1.444-0.084,1.925-0.514,2.059
	c-0.233,0.066-0.532,0.083-0.748,0.083c-0.166,0-0.266,0.033-0.266,0.133C129.678,31.443,129.828,31.46,130.043,31.46z
	 M105.23,19.213c0.199,0,0.415,0.016,0.598,0.066c0.365,0.083,0.53,0.365,0.564,0.93c0.033,0.53,0.033,0.995,0.033,3.518v2.92
	c0,1.609,0,2.92-0.083,3.617c-0.05,0.482-0.149,0.764-0.481,0.83c-0.15,0.033-0.349,0.066-0.598,0.066
	c-0.199,0-0.265,0.051-0.265,0.133c0,0.115,0.116,0.166,0.332,0.166c0.665,0,1.709-0.051,2.091-0.051
	c0.448,0,1.494,0.051,2.589,0.051c0.183,0,0.314-0.051,0.314-0.166c0-0.083-0.083-0.133-0.265-0.133
	c-0.249,0-0.614-0.033-0.846-0.066c-0.498-0.066-0.614-0.365-0.664-0.813c-0.066-0.714-0.066-2.025-0.066-3.635v-2.92
	c0-2.523,0-2.987,0.033-3.518c0.033-0.581,0.166-0.863,0.614-0.947c0.199-0.032,0.332-0.049,0.498-0.049
	c0.166,0,0.266-0.033,0.266-0.166c0-0.1-0.133-0.133-0.348-0.133c-0.631,0-1.61,0.05-2.025,0.05c-0.481,0-1.526-0.05-2.157-0.05
	c-0.265,0-0.398,0.034-0.398,0.133C104.965,19.18,105.065,19.213,105.23,19.213z M83.069,19.213c0.216,0,0.416,0.016,0.548,0.049
	c0.547,0.116,0.68,0.382,0.714,0.947c0.033,0.53,0.033,0.995,0.033,3.518v2.92c0,1.527,0,2.837-0.083,3.534
	c-0.066,0.481-0.15,0.847-0.481,0.913c-0.149,0.033-0.348,0.066-0.597,0.066c-0.199,0-0.266,0.051-0.266,0.133
	c0,0.115,0.116,0.166,0.332,0.166c0.664,0,1.71-0.051,2.091-0.051c1.344,0,2.439,0.1,4.829,0.1c0.862,0,0.946-0.082,1.045-0.447
	c0.133-0.481,0.25-1.727,0.25-1.908c0-0.199-0.017-0.282-0.133-0.282c-0.133,0-0.167,0.099-0.183,0.249
	c-0.033,0.314-0.232,0.779-0.432,0.995c-0.415,0.448-1.062,0.466-1.941,0.466c-1.294,0-1.726-0.117-2.008-0.365
	c-0.348-0.299-0.348-1.443-0.348-3.568v-2.92h-0.001c0-2.523,0-2.987,0.034-3.518c0.032-0.581,0.166-0.863,0.614-0.947
	c0.2-0.032,0.465-0.049,0.647-0.049c0.199,0,0.298-0.033,0.298-0.15c0-0.116-0.116-0.149-0.349-0.149
	c-0.647,0-1.858,0.05-2.257,0.05c-0.448,0-1.493-0.05-2.273-0.05c-0.249,0-0.365,0.033-0.365,0.149S82.886,19.213,83.069,19.213z
	 M125.339,31.145l0.182-10.471c0.017-0.93,0.149-1.278,0.614-1.411c0.199-0.049,0.331-0.049,0.497-0.049
	c0.199,0,0.298-0.051,0.298-0.15c0-0.133-0.165-0.15-0.38-0.15c-0.814,0-1.444,0.051-1.627,0.051c-0.348,0-1.146-0.051-2.007-0.051
	c-0.249,0-0.432,0.017-0.432,0.15c0,0.099,0.066,0.15,0.266,0.15c0.233,0,0.63,0,0.88,0.1c0.397,0.166,0.547,0.481,0.563,1.493
	l0.167,7.451h-0.083c-0.282-0.265-2.522-2.654-3.65-3.782c-2.423-2.406-4.945-5.111-5.144-5.327
	c-0.282-0.298-0.432-0.514-0.614-0.514c-0.167,0-0.216,0.232-0.216,0.564l-0.149,9.823c-0.016,1.444-0.083,1.925-0.514,2.059
	c-0.232,0.066-0.531,0.083-0.747,0.083c-0.166,0-0.266,0.033-0.266,0.133c0,0.149,0.149,0.166,0.365,0.166
	c0.863,0,1.643-0.051,1.792-0.051c0.315,0,0.979,0.051,2.058,0.051c0.233,0,0.382-0.033,0.382-0.166c0-0.1-0.1-0.133-0.282-0.133
	c-0.266,0-0.581-0.017-0.863-0.116c-0.332-0.116-0.547-0.547-0.581-1.841l-0.183-6.971h0.049c0.299,0.315,2.141,2.39,3.95,4.181
	c1.726,1.71,3.85,3.883,4.895,4.879c0.183,0.183,0.382,0.364,0.565,0.364C125.272,31.658,125.339,31.509,125.339,31.145z
	 M186.443,29.203c0,0.382-0.134,1.51-0.216,1.842c-0.117,0.432-0.266,0.432-0.896,0.432c-2.506,0-3.618-0.101-4.597-0.101
	c-0.382,0-1.427,0.051-2.091,0.051c-0.216,0-0.331-0.051-0.331-0.166c0-0.082,0.065-0.133,0.265-0.133
	c0.249,0,0.448-0.033,0.598-0.065c0.331-0.067,0.415-0.433,0.481-0.913c0.083-0.697,0.083-2.007,0.083-3.534h0.001v-2.92
	c0-2.522,0-2.987-0.034-3.518c-0.032-0.565-0.166-0.83-0.713-0.946c-0.133-0.033-0.415-0.051-0.647-0.051
	c-0.183,0-0.282-0.033-0.282-0.148c0-0.117,0.115-0.15,0.364-0.15c0.881,0,1.925,0.05,2.39,0.05c0.531,0,3.834,0,4.148-0.016
	c0.315-0.034,0.581-0.066,0.714-0.1c0.083-0.017,0.183-0.066,0.266-0.066s0.1,0.066,0.1,0.149c0,0.115-0.083,0.315-0.133,1.078
	c-0.016,0.166-0.05,0.896-0.083,1.095c-0.018,0.084-0.05,0.183-0.166,0.183s-0.149-0.082-0.149-0.231
	c0-0.117-0.017-0.398-0.099-0.598c-0.117-0.3-0.282-0.498-1.112-0.599c-0.282-0.033-2.024-0.066-2.356-0.066
	c-0.083,0-0.116,0.051-0.116,0.167v4.197c0,0.116,0.017,0.183,0.116,0.183c0.365,0,2.273,0,2.655-0.033
	c0.397-0.033,0.647-0.083,0.797-0.249c0.115-0.133,0.183-0.215,0.265-0.215c0.066,0,0.116,0.032,0.116,0.132
	s-0.082,0.365-0.133,1.211c-0.033,0.332-0.065,0.996-0.065,1.112c0,0.132,0,0.314-0.15,0.314c-0.116,0-0.149-0.065-0.149-0.149
	c-0.016-0.166-0.016-0.382-0.066-0.598c-0.082-0.333-0.315-0.58-0.93-0.647c-0.314-0.033-1.958-0.051-2.355-0.051
	c-0.083,0-0.101,0.067-0.101,0.167v1.311c0,0.563-0.016,2.091,0,2.571c0.033,1.146,0.299,1.395,1.991,1.395
	c0.432,0,1.13,0,1.561-0.199c0.431-0.198,0.63-0.548,0.747-1.228c0.033-0.183,0.066-0.249,0.182-0.249
	C186.443,28.902,186.443,29.035,186.443,29.203z M175.561,18.764c-0.133,0-0.53,0.166-1.593,0.166h-6.571
	c-0.547,0-1.179-0.032-1.66-0.083c-0.415-0.033-0.581-0.2-0.714-0.2c-0.1,0-0.149,0.101-0.199,0.316
	c-0.033,0.132-0.348,1.643-0.348,1.908c0,0.183,0.033,0.266,0.15,0.266c0.1,0,0.149-0.066,0.182-0.2
	c0.034-0.132,0.116-0.331,0.283-0.579c0.248-0.365,0.646-0.449,1.609-0.481l2.473-0.067v6.804c0,1.525,0,2.837-0.084,3.533
	c-0.049,0.48-0.148,0.846-0.481,0.912c-0.149,0.034-0.348,0.067-0.597,0.067c-0.2,0-0.266,0.05-0.266,0.133
	c0,0.115,0.116,0.166,0.333,0.166c0.664,0,1.708-0.051,2.09-0.051c0.465,0,1.509,0.051,2.604,0.051c0.184,0,0.316-0.051,0.316-0.166
	c0-0.082-0.083-0.133-0.266-0.133c-0.248,0-0.613-0.034-0.846-0.067c-0.498-0.066-0.597-0.432-0.647-0.896
	c-0.083-0.714-0.083-2.024-0.083-3.551v-6.803l2.091,0.05c1.477,0.034,1.924,0.498,1.958,0.93l0.017,0.183
	c0.016,0.249,0.049,0.332,0.183,0.332c0.1,0,0.133-0.099,0.149-0.266c0-0.432,0.049-1.576,0.049-1.925
	C175.692,18.863,175.677,18.765,175.561,18.764z M266.214,17.602c0.48,0,0.797-0.364,0.797-0.829s-0.35-0.73-0.78-0.73
	c-0.53,0-0.763,0.448-0.763,0.781C265.468,17.171,265.684,17.602,266.214,17.602z M261.967,16.822c0,0.349,0.216,0.779,0.747,0.779
	c0.479,0,0.796-0.364,0.796-0.829c0-0.448-0.349-0.714-0.78-0.714C262.198,16.059,261.967,16.507,261.967,16.822z M319.895,24.854
	c0,3.8-2.654,6.804-6.868,6.804c-4.764,0-6.688-3.567-6.688-6.505c0-2.837,1.876-6.505,6.854-6.505
	C317.323,18.647,319.895,21.054,319.895,24.854z M317.571,25.468c0-3.718-2.14-6.023-4.859-6.023c-1.91,0-4.084,1.063-4.084,5.194
	c0,3.451,1.907,6.188,5.095,6.188C314.885,30.827,317.571,30.264,317.571,25.468z M305.828,31.125c-0.198,0-0.53-0.05-1.028-0.249
	c-0.896-0.348-1.644-1.095-2.372-1.791c-0.647-0.615-3.901-4.116-4.498-4.896c0.564-0.598,3.07-3.087,3.584-3.584
	c0.714-0.698,1.278-1.045,1.793-1.245c0.315-0.116,0.731-0.183,0.963-0.183c0.166,0,0.249-0.032,0.249-0.149
	c0-0.116-0.115-0.149-0.281-0.149c-0.516,0-1.428,0.051-1.941,0.051c-0.448,0-1.36-0.051-1.71-0.051
	c-0.182,0-0.265,0.033-0.265,0.149c0,0.1,0.066,0.133,0.215,0.166c0.167,0.033,0.232,0.15,0.232,0.332
	c0,0.282-0.364,0.697-0.83,1.245c-0.479,0.564-2.903,3.037-3.467,3.651h-0.084v-0.729h-0.001c0-2.523,0-2.988,0.033-3.519
	c0.033-0.58,0.166-0.862,0.614-0.945c0.199-0.033,0.299-0.051,0.465-0.051c0.132,0,0.232-0.033,0.232-0.149s-0.115-0.15-0.35-0.15
	c-0.563,0-1.609,0.051-2.007,0.051s-1.444-0.051-2.322-0.051c-0.249,0-0.365,0.034-0.365,0.15s0.1,0.149,0.282,0.149
	c0.231,0,0.515,0.017,0.646,0.051c0.548,0.115,0.681,0.381,0.714,0.945c0.032,0.53,0.032,0.995,0.032,3.519v2.92
	c0,1.526,0,2.837-0.083,3.534c-0.066,0.48-0.149,0.846-0.479,0.912c-0.151,0.033-0.35,0.066-0.599,0.066
	c-0.198,0-0.266,0.051-0.266,0.134c0,0.114,0.116,0.166,0.333,0.166c0.663,0,1.71-0.051,2.091-0.051c0.414,0,1.46,0.051,2.389,0.051
	c0.183,0,0.314-0.051,0.314-0.166c0-0.083-0.082-0.134-0.214-0.134c-0.216,0-0.582-0.033-0.813-0.066
	c-0.415-0.066-0.564-0.432-0.598-0.896c-0.052-0.714-0.052-2.024-0.052-3.551v-1.511h0.084l0.182,0.249
	c0.351,0.481,3.619,4.314,4.349,4.962c0.714,0.631,1.161,0.995,2.058,1.078c0.349,0.033,0.647,0.033,1.146,0.033h1.444
	c0.315,0,0.397-0.051,0.397-0.166C306.044,31.158,305.944,31.125,305.828,31.125z M289.503,31.126c-0.249,0-0.614-0.033-0.847-0.066
	c-0.496-0.066-0.613-0.364-0.663-0.813c-0.067-0.713-0.067-2.024-0.067-3.634v-2.92c0-2.523,0-2.988,0.034-3.519
	c0.032-0.58,0.166-0.862,0.614-0.945c0.198-0.033,0.331-0.051,0.497-0.051c0.165,0,0.267-0.033,0.267-0.167
	c0-0.099-0.133-0.132-0.35-0.132c-0.631,0-1.609,0.051-2.023,0.051c-0.481,0-1.528-0.051-2.158-0.051
	c-0.266,0-0.397,0.033-0.397,0.132c0,0.133,0.1,0.167,0.266,0.167c0.199,0,0.416,0.017,0.599,0.066
	c0.363,0.083,0.53,0.365,0.563,0.93c0.032,0.53,0.032,0.995,0.032,3.519v2.92h0.001c0,1.609,0,2.92-0.084,3.617
	c-0.05,0.481-0.15,0.763-0.48,0.829c-0.15,0.033-0.349,0.066-0.599,0.066c-0.197,0-0.266,0.051-0.266,0.134
	c0,0.115,0.117,0.166,0.334,0.166c0.662,0,1.708-0.051,2.09-0.051c0.448,0,1.492,0.051,2.588,0.051c0.182,0,0.315-0.051,0.315-0.166
	C289.769,31.177,289.687,31.126,289.503,31.126z M336.266,24.854c0,3.8-2.654,6.804-6.869,6.804c-4.764,0-6.688-3.567-6.687-6.505
	c0-2.837,1.875-6.505,6.854-6.505C333.693,18.647,336.266,21.054,336.266,24.854z M333.942,25.468c0-3.718-2.141-6.023-4.861-6.023
	c-1.908,0-4.082,1.063-4.082,5.194c-0.001,3.451,1.908,6.188,5.094,6.188C331.255,30.827,333.942,30.264,333.942,25.468z
	 M203.479,31.126c-0.249,0-0.614-0.033-0.846-0.066c-0.498-0.066-0.598-0.432-0.647-0.896c-0.083-0.713-0.083-2.024-0.083-3.55
	v-2.921c0-2.522,0-2.987,0.034-3.518c0.033-0.581,0.166-0.863,0.613-0.946c0.2-0.032,0.349-0.051,0.481-0.051
	c0.199,0,0.299-0.033,0.299-0.149s-0.115-0.149-0.349-0.149c-0.647,0-1.691,0.051-2.09,0.051c-0.449,0-1.494-0.051-2.391-0.051
	c-0.232,0-0.348,0.033-0.348,0.149s0.1,0.149,0.282,0.149c0.231,0,0.514,0.017,0.647,0.051c0.547,0.116,0.679,0.381,0.713,0.946
	c0.034,0.53,0.034,0.995,0.034,3.518v0.349c0,0.083-0.051,0.116-0.101,0.116h-6.34c-0.05,0-0.099-0.033-0.099-0.116v-0.349
	c0-2.522,0-2.987,0.033-3.518c0.033-0.581,0.166-0.863,0.614-0.946c0.199-0.032,0.348-0.051,0.48-0.051c0.2,0,0.3-0.033,0.3-0.149
	s-0.117-0.149-0.349-0.149c-0.647,0-1.692,0.051-2.092,0.051c-0.447,0-1.493-0.051-2.39-0.051c-0.231,0-0.348,0.033-0.348,0.149
	s0.099,0.149,0.282,0.149c0.232,0,0.515,0.017,0.647,0.051c0.548,0.116,0.68,0.381,0.713,0.946c0.033,0.53,0.033,0.995,0.033,3.518
	v2.921c0,1.526,0,2.837-0.083,3.534c-0.065,0.48-0.149,0.846-0.48,0.912c-0.149,0.033-0.348,0.066-0.598,0.066
	c-0.199,0-0.265,0.05-0.265,0.133c0,0.115,0.115,0.166,0.331,0.166c0.663,0,1.709-0.051,2.091-0.051
	c0.465,0,1.511,0.051,2.589,0.051c0.199,0,0.331-0.051,0.331-0.166c0-0.083-0.082-0.133-0.265-0.133
	c-0.249,0-0.614-0.033-0.848-0.066c-0.497-0.066-0.597-0.432-0.646-0.896c-0.083-0.713-0.083-2.024-0.083-3.55v-1.461
	c0-0.082,0.05-0.1,0.1-0.1h6.339c0.05,0,0.101,0.032,0.101,0.1v1.461c0,1.526,0,2.837-0.083,3.534
	c-0.066,0.48-0.15,0.846-0.482,0.912c-0.148,0.033-0.348,0.066-0.598,0.066c-0.198,0-0.265,0.05-0.265,0.133
	c0,0.115,0.115,0.166,0.348,0.166c0.647,0,1.692-0.051,2.074-0.051c0.466,0,1.51,0.051,2.588,0.051c0.2,0,0.333-0.051,0.333-0.166
	C203.745,31.176,203.662,31.126,203.479,31.126z M347.709,28.836c-0.133,0-0.166,0.1-0.183,0.249
	c-0.032,0.315-0.232,0.78-0.432,0.996c-0.415,0.447-1.063,0.464-1.942,0.464c-1.293,0-1.725-0.116-2.008-0.365
	c-0.348-0.299-0.348-1.443-0.348-3.567v-2.92l0,0c0-2.522,0-2.987,0.033-3.518c0.032-0.581,0.166-0.863,0.614-0.946
	c0.199-0.033,0.464-0.05,0.647-0.05c0.198,0,0.299-0.034,0.299-0.149c0-0.117-0.116-0.15-0.35-0.15
	c-0.646,0-1.858,0.051-2.256,0.051c-0.449,0-1.494-0.051-2.274-0.051c-0.249,0-0.365,0.033-0.365,0.15
	c0,0.115,0.1,0.149,0.282,0.149c0.216,0,0.415,0.017,0.547,0.05c0.549,0.116,0.681,0.381,0.714,0.946
	c0.034,0.53,0.034,0.995,0.034,3.518v2.92c0,1.526,0,2.837-0.083,3.534c-0.066,0.48-0.15,0.846-0.482,0.912
	c-0.149,0.033-0.348,0.067-0.597,0.067c-0.199,0-0.266,0.051-0.266,0.133c0,0.115,0.115,0.166,0.332,0.166
	c0.663,0,1.709-0.051,2.09-0.051c1.346,0,2.439,0.101,4.83,0.101c0.862,0,0.945-0.083,1.045-0.448
	c0.132-0.48,0.249-1.726,0.249-1.907C347.842,28.919,347.825,28.836,347.709,28.836z M281.824,28.836
	c-0.132,0-0.166,0.1-0.183,0.249c-0.033,0.315-0.232,0.78-0.432,0.996c-0.415,0.447-1.063,0.464-1.941,0.464
	c-1.295,0-1.727-0.116-2.008-0.365c-0.349-0.299-0.349-1.443-0.349-3.567v-2.92h0.001c0-2.522,0-2.987,0.033-3.518
	c0.032-0.581,0.165-0.863,0.613-0.946c0.199-0.033,0.466-0.05,0.648-0.05c0.198,0,0.297-0.034,0.297-0.149
	c0-0.117-0.115-0.15-0.349-0.15c-0.646,0-1.858,0.051-2.256,0.051c-0.449,0-1.494-0.051-2.274-0.051
	c-0.249,0-0.365,0.033-0.365,0.15c0,0.115,0.1,0.149,0.282,0.149c0.215,0,0.416,0.017,0.548,0.05
	c0.548,0.116,0.68,0.381,0.714,0.946c0.032,0.53,0.032,0.995,0.032,3.518v2.92c0,1.526,0,2.837-0.083,3.534
	c-0.067,0.48-0.149,0.846-0.48,0.912c-0.151,0.033-0.349,0.067-0.599,0.067c-0.198,0-0.265,0.051-0.265,0.133
	c0,0.115,0.115,0.166,0.333,0.166c0.661,0,1.708-0.051,2.09-0.051c1.344,0,2.439,0.101,4.829,0.101c0.862,0,0.944-0.083,1.045-0.448
	c0.133-0.48,0.25-1.726,0.25-1.907C281.957,28.919,281.94,28.836,281.824,28.836z M228.674,31.126c-0.249,0-0.614-0.033-0.847-0.066
	c-0.497-0.066-0.613-0.364-0.664-0.813c-0.066-0.713-0.066-2.024-0.066-3.634v-2.92c0-2.523,0-2.988,0.033-3.519
	c0.033-0.58,0.167-0.862,0.614-0.945c0.199-0.033,0.332-0.051,0.498-0.051s0.266-0.033,0.266-0.167c0-0.099-0.134-0.132-0.349-0.132
	c-0.631,0-1.609,0.051-2.024,0.051c-0.481,0-1.527-0.051-2.157-0.051c-0.267,0-0.398,0.033-0.398,0.132
	c0,0.133,0.1,0.167,0.265,0.167c0.2,0,0.415,0.017,0.598,0.066c0.365,0.083,0.532,0.365,0.564,0.93
	c0.034,0.53,0.034,0.995,0.034,3.519v2.92c0,1.609,0,2.92-0.084,3.617c-0.049,0.481-0.149,0.763-0.48,0.829
	c-0.149,0.033-0.349,0.066-0.598,0.066c-0.199,0-0.265,0.051-0.265,0.134c0,0.115,0.116,0.166,0.332,0.166
	c0.663,0,1.709-0.051,2.091-0.051c0.447,0,1.493,0.051,2.588,0.051c0.183,0,0.315-0.051,0.315-0.166
	C228.939,31.177,228.856,31.126,228.674,31.126z M270.264,18.879c-0.647,0-1.692,0.051-1.892,0.051
	c-0.017,0-1.063-0.051-1.908-0.051c-0.233,0-0.349,0.034-0.349,0.15s0.1,0.149,0.281,0.149c0.184,0,0.466,0.017,0.598,0.051
	c0.549,0.115,0.681,0.381,0.714,0.945c0.034,0.53,0.034,0.995,0.034,3.519v2.074c0,1.709-0.052,3.202-0.964,4.114
	c-0.662,0.664-1.56,0.896-2.29,0.896c-0.563,0-1.327-0.066-2.074-0.681c-0.813-0.663-1.293-1.676-1.293-4.082v-2.322
	c0-2.522,0-2.987,0.032-3.518c0.034-0.581,0.166-0.863,0.613-0.946c0.2-0.033,0.299-0.05,0.482-0.05
	c0.165,0,0.265-0.034,0.265-0.149c0-0.117-0.116-0.15-0.364-0.15c-0.598,0-1.643,0.051-2.041,0.051
	c-0.498,0-1.544-0.051-2.423-0.051c-0.249,0-0.365,0.033-0.365,0.15c0,0.115,0.1,0.149,0.282,0.149c0.233,0,0.516,0.017,0.647,0.05
	c0.548,0.116,0.68,0.381,0.714,0.946c0.031,0.53,0.031,0.995,0.031,3.518v2.423c0,2.405,0.631,3.634,1.479,4.397
	c1.212,1.095,2.806,1.145,3.684,1.145c1.079,0,2.274-0.183,3.452-1.194c1.394-1.194,1.577-3.153,1.577-4.995v-1.774
	c0-2.523,0-2.988,0.033-3.519c0.032-0.58,0.165-0.862,0.612-0.945c0.2-0.033,0.299-0.051,0.482-0.051
	c0.198,0,0.298-0.033,0.298-0.149S270.497,18.879,270.264,18.879z M219.97,18.879c-0.813,0-1.443,0.051-1.626,0.051
	c-0.349,0-1.146-0.051-2.008-0.051c-0.249,0-0.433,0.017-0.433,0.149c0,0.1,0.067,0.149,0.267,0.149c0.231,0,0.631,0,0.879,0.1
	c0.399,0.167,0.548,0.481,0.563,1.493l0.166,7.451h-0.082c-0.282-0.267-2.523-2.656-3.65-3.783
	c-2.423-2.405-4.945-5.111-5.145-5.326c-0.282-0.299-0.432-0.515-0.614-0.515c-0.165,0-0.214,0.232-0.214,0.564l-0.151,9.824
	c-0.017,1.444-0.083,1.925-0.515,2.058c-0.231,0.066-0.531,0.083-0.746,0.083c-0.166,0-0.266,0.033-0.266,0.133
	c0,0.149,0.148,0.166,0.364,0.166c0.863,0,1.643-0.051,1.792-0.051c0.315,0,0.979,0.051,2.058,0.051
	c0.233,0,0.383-0.033,0.383-0.166c0-0.1-0.101-0.133-0.282-0.133c-0.266,0-0.581-0.017-0.863-0.115
	c-0.332-0.117-0.548-0.549-0.581-1.843l-0.183-6.969h0.051c0.298,0.314,2.141,2.389,3.949,4.181c1.726,1.71,3.85,3.884,4.896,4.879
	c0.183,0.183,0.381,0.364,0.564,0.364c0.149,0,0.215-0.149,0.215-0.515l0.183-10.47c0.017-0.93,0.15-1.278,0.614-1.411
	c0.199-0.05,0.332-0.05,0.498-0.05c0.199,0,0.299-0.05,0.299-0.149C220.352,18.896,220.186,18.879,219.97,18.879z M256.975,31.26
	c0,0.132-0.149,0.166-0.765,0.166c-0.597,0-1.808,0-3.135-0.034c-0.299-0.017-0.498-0.017-0.498-0.132
	c0-0.101,0.067-0.133,0.233-0.15c0.116-0.033,0.231-0.183,0.149-0.381l-1.328-3.519c-0.033-0.083-0.083-0.116-0.166-0.116v0.001
	h-3.701c-0.085,0-0.117,0.032-0.15,0.133l-0.896,2.372c-0.167,0.416-0.25,0.813-0.25,1.013c0,0.299,0.149,0.515,0.665,0.515h0.248
	c0.199,0,0.249,0.033,0.249,0.133c0,0.132-0.101,0.166-0.281,0.166c-0.532,0-1.246-0.051-1.76-0.051
	c-0.069,0-0.246,0.008-0.484,0.017c0.029-0.011,0.046-0.025,0.063-0.04c0.027-0.024,0.044-0.054,0.044-0.093
	c0-0.101-0.099-0.134-0.215-0.134c-0.143,0-0.355-0.028-0.644-0.114c0.536-0.203,0.808-0.709,1.087-1.411l4.166-10.42
	c0.199-0.481,0.299-0.664,0.464-0.664c0.15,0,0.25,0.15,0.416,0.531c0.397,0.913,3.053,7.683,4.114,10.205
	c0.632,1.494,1.111,1.727,1.46,1.809c0.249,0.05,0.498,0.066,0.697,0.066C256.891,31.126,256.975,31.143,256.975,31.26z
	 M251.233,26.164l-1.493-4.098c-0.018-0.066-0.033-0.15-0.083-0.15c-0.051,0-0.084,0.083-0.099,0.15l-1.528,4.081
	c-0.016,0.066,0,0.116,0.066,0.116h3.053C251.233,26.264,251.249,26.214,251.233,26.164z M245.169,31.352
	c0.026-0.024,0.044-0.054,0.044-0.093c0-0.101-0.099-0.133-0.216-0.133c-0.142,0-0.354-0.029-0.643-0.114
	c-0.1,0.037-0.205,0.067-0.323,0.083c-0.133,0.016-0.366,0.032-0.516,0.032c-0.131,0-0.198,0.033-0.198,0.133
	c0-0.1,0.067-0.133,0.198-0.133c0.149,0,0.382-0.017,0.516-0.033c0.118-0.015,0.224-0.046,0.323-0.083
	c-0.116-0.034-0.243-0.077-0.386-0.135c-0.896-0.348-1.644-1.095-2.373-1.791c-0.646-0.614-3.899-4.116-4.495-4.896
	c0.563-0.598,3.069-3.087,3.582-3.585c0.715-0.697,1.279-1.045,1.793-1.245c0.314-0.115,0.73-0.182,0.963-0.182
	c0.166,0,0.25-0.033,0.25-0.149s-0.117-0.15-0.282-0.15c-0.516,0-1.428,0.052-1.941,0.052c-0.448,0-1.36-0.052-1.71-0.052
	c-0.182,0-0.266,0.033-0.266,0.15c0,0.1,0.067,0.133,0.216,0.166c0.165,0.032,0.233,0.149,0.233,0.332
	c0,0.282-0.365,0.696-0.83,1.244c-0.48,0.564-2.904,3.037-3.468,3.651h-0.084v-0.729h-0.001c0-2.522,0-2.987,0.033-3.518
	c0.033-0.581,0.166-0.863,0.614-0.946c0.198-0.033,0.299-0.05,0.465-0.05c0.132,0,0.232-0.034,0.232-0.149
	c0-0.117-0.114-0.15-0.349-0.15c-0.563,0-1.61,0.051-2.008,0.051s-1.444-0.051-2.322-0.051c-0.248,0-0.365,0.033-0.365,0.15
	c0,0.115,0.1,0.149,0.282,0.149c0.232,0,0.515,0.017,0.647,0.05c0.547,0.116,0.68,0.381,0.714,0.946
	c0.032,0.53,0.032,0.995,0.032,3.518v2.92c0,1.526,0,2.837-0.083,3.534c-0.067,0.48-0.15,0.846-0.481,0.912
	c-0.149,0.033-0.349,0.067-0.599,0.067c-0.197,0-0.265,0.051-0.265,0.133c0,0.115,0.116,0.166,0.333,0.166
	c0.662,0,1.709-0.051,2.091-0.051c0.415,0,1.46,0.051,2.39,0.051c0.183,0,0.313-0.051,0.313-0.166c0-0.083-0.082-0.133-0.216-0.133
	c-0.215,0-0.579-0.033-0.813-0.067c-0.414-0.066-0.563-0.432-0.598-0.896c-0.051-0.714-0.051-2.024-0.051-3.551v-1.511h0.084
	l0.183,0.249c0.348,0.481,3.617,4.314,4.348,4.962c0.714,0.631,1.162,0.996,2.058,1.078c0.348,0.034,0.646,0.034,1.145,0.034h0.242
	c0.007,0,0.011,0.001,0.019,0.001c0.047,0,0.094-0.001,0.143-0.001c0.006,0,0.011,0,0.017,0c-0.006,0-0.011,0-0.017,0h1.042
	c0.139,0,0.225-0.012,0.287-0.032h0.001v-0.001l0,0l0,0c0,0,0,0,0.001,0h-0.001C245.135,31.382,245.151,31.367,245.169,31.352z"/>
</svg>
